<?xml version="1.0" encoding="utf-8"?>
<svg xmlns="http://www.w3.org/2000/svg" xmlns:xlink="http://www.w3.org/1999/xlink" width="600" height="400" viewBox="0 0 2400 1600">
<defs>
  <clipPath id="clip030">
    <rect x="0" y="0" width="2400" height="1600"/>
  </clipPath>
</defs>
<path clip-path="url(#clip030)" d="M0 1600 L2400 1600 L2400 8.88178e-14 L0 8.88178e-14  Z" fill="#ffffff" fill-rule="evenodd" fill-opacity="1"/>
<defs>
  <clipPath id="clip031">
    <rect x="480" y="0" width="1681" height="1600"/>
  </clipPath>
</defs>
<path clip-path="url(#clip030)" d="M340.028 1423.18 L2352.76 1423.18 L2352.76 47.2441 L340.028 47.2441  Z" fill="#ffffff" fill-rule="evenodd" fill-opacity="1"/>
<defs>
  <clipPath id="clip032">
    <rect x="340" y="47" width="2014" height="1377"/>
  </clipPath>
</defs>
<polyline clip-path="url(#clip032)" style="stroke:#000000; stroke-linecap:round; stroke-linejoin:round; stroke-width:2; stroke-opacity:0.1; fill:none" points="396.992,1423.18 396.992,47.2441 "/>
<polyline clip-path="url(#clip032)" style="stroke:#000000; stroke-linecap:round; stroke-linejoin:round; stroke-width:2; stroke-opacity:0.1; fill:none" points="776.752,1423.18 776.752,47.2441 "/>
<polyline clip-path="url(#clip032)" style="stroke:#000000; stroke-linecap:round; stroke-linejoin:round; stroke-width:2; stroke-opacity:0.1; fill:none" points="1156.51,1423.18 1156.51,47.2441 "/>
<polyline clip-path="url(#clip032)" style="stroke:#000000; stroke-linecap:round; stroke-linejoin:round; stroke-width:2; stroke-opacity:0.1; fill:none" points="1536.27,1423.18 1536.27,47.2441 "/>
<polyline clip-path="url(#clip032)" style="stroke:#000000; stroke-linecap:round; stroke-linejoin:round; stroke-width:2; stroke-opacity:0.1; fill:none" points="1916.03,1423.18 1916.03,47.2441 "/>
<polyline clip-path="url(#clip032)" style="stroke:#000000; stroke-linecap:round; stroke-linejoin:round; stroke-width:2; stroke-opacity:0.1; fill:none" points="2295.79,1423.18 2295.79,47.2441 "/>
<polyline clip-path="url(#clip030)" style="stroke:#000000; stroke-linecap:round; stroke-linejoin:round; stroke-width:4; stroke-opacity:1; fill:none" points="340.028,1423.18 2352.76,1423.18 "/>
<polyline clip-path="url(#clip030)" style="stroke:#000000; stroke-linecap:round; stroke-linejoin:round; stroke-width:4; stroke-opacity:1; fill:none" points="396.992,1423.18 396.992,1404.28 "/>
<polyline clip-path="url(#clip030)" style="stroke:#000000; stroke-linecap:round; stroke-linejoin:round; stroke-width:4; stroke-opacity:1; fill:none" points="776.752,1423.18 776.752,1404.28 "/>
<polyline clip-path="url(#clip030)" style="stroke:#000000; stroke-linecap:round; stroke-linejoin:round; stroke-width:4; stroke-opacity:1; fill:none" points="1156.51,1423.18 1156.51,1404.28 "/>
<polyline clip-path="url(#clip030)" style="stroke:#000000; stroke-linecap:round; stroke-linejoin:round; stroke-width:4; stroke-opacity:1; fill:none" points="1536.27,1423.18 1536.27,1404.28 "/>
<polyline clip-path="url(#clip030)" style="stroke:#000000; stroke-linecap:round; stroke-linejoin:round; stroke-width:4; stroke-opacity:1; fill:none" points="1916.03,1423.18 1916.03,1404.28 "/>
<polyline clip-path="url(#clip030)" style="stroke:#000000; stroke-linecap:round; stroke-linejoin:round; stroke-width:4; stroke-opacity:1; fill:none" points="2295.79,1423.18 2295.79,1404.28 "/>
<path clip-path="url(#clip030)" d="M396.992 1454.1 Q393.381 1454.1 391.552 1457.66 Q389.746 1461.2 389.746 1468.33 Q389.746 1475.44 391.552 1479.01 Q393.381 1482.55 396.992 1482.55 Q400.626 1482.55 402.431 1479.01 Q404.26 1475.44 404.26 1468.33 Q404.26 1461.2 402.431 1457.66 Q400.626 1454.1 396.992 1454.1 M396.992 1450.39 Q402.802 1450.39 405.857 1455 Q408.936 1459.58 408.936 1468.33 Q408.936 1477.06 405.857 1481.67 Q402.802 1486.25 396.992 1486.25 Q391.182 1486.25 388.103 1481.67 Q385.047 1477.06 385.047 1468.33 Q385.047 1459.58 388.103 1455 Q391.182 1450.39 396.992 1450.39 Z" fill="#000000" fill-rule="nonzero" fill-opacity="1" /><path clip-path="url(#clip030)" d="M767.134 1481.64 L774.773 1481.64 L774.773 1455.28 L766.462 1456.95 L766.462 1452.69 L774.726 1451.02 L779.402 1451.02 L779.402 1481.64 L787.041 1481.64 L787.041 1485.58 L767.134 1485.58 L767.134 1481.64 Z" fill="#000000" fill-rule="nonzero" fill-opacity="1" /><path clip-path="url(#clip030)" d="M1151.16 1481.64 L1167.48 1481.64 L1167.48 1485.58 L1145.54 1485.58 L1145.54 1481.64 Q1148.2 1478.89 1152.78 1474.26 Q1157.39 1469.61 1158.57 1468.27 Q1160.82 1465.74 1161.7 1464.01 Q1162.6 1462.25 1162.6 1460.56 Q1162.6 1457.8 1160.66 1456.07 Q1158.73 1454.33 1155.63 1454.33 Q1153.43 1454.33 1150.98 1455.09 Q1148.55 1455.86 1145.77 1457.41 L1145.77 1452.69 Q1148.6 1451.55 1151.05 1450.97 Q1153.5 1450.39 1155.54 1450.39 Q1160.91 1450.39 1164.1 1453.08 Q1167.3 1455.77 1167.3 1460.26 Q1167.3 1462.39 1166.49 1464.31 Q1165.7 1466.2 1163.6 1468.8 Q1163.02 1469.47 1159.91 1472.69 Q1156.81 1475.88 1151.16 1481.64 Z" fill="#000000" fill-rule="nonzero" fill-opacity="1" /><path clip-path="url(#clip030)" d="M1540.52 1466.95 Q1543.88 1467.66 1545.75 1469.93 Q1547.65 1472.2 1547.65 1475.53 Q1547.65 1480.65 1544.13 1483.45 Q1540.61 1486.25 1534.13 1486.25 Q1531.95 1486.25 1529.64 1485.81 Q1527.35 1485.39 1524.89 1484.54 L1524.89 1480.02 Q1526.84 1481.16 1529.15 1481.74 Q1531.47 1482.32 1533.99 1482.32 Q1538.39 1482.32 1540.68 1480.58 Q1543 1478.84 1543 1475.53 Q1543 1472.48 1540.84 1470.77 Q1538.71 1469.03 1534.89 1469.03 L1530.87 1469.03 L1530.87 1465.19 L1535.08 1465.19 Q1538.53 1465.19 1540.36 1463.82 Q1542.19 1462.43 1542.19 1459.84 Q1542.19 1457.18 1540.29 1455.77 Q1538.41 1454.33 1534.89 1454.33 Q1532.97 1454.33 1530.77 1454.75 Q1528.58 1455.16 1525.94 1456.04 L1525.94 1451.88 Q1528.6 1451.14 1530.91 1450.77 Q1533.25 1450.39 1535.31 1450.39 Q1540.64 1450.39 1543.74 1452.83 Q1546.84 1455.23 1546.84 1459.35 Q1546.84 1462.22 1545.2 1464.21 Q1543.55 1466.18 1540.52 1466.95 Z" fill="#000000" fill-rule="nonzero" fill-opacity="1" /><path clip-path="url(#clip030)" d="M1919.04 1455.09 L1907.24 1473.54 L1919.04 1473.54 L1919.04 1455.09 M1917.81 1451.02 L1923.69 1451.02 L1923.69 1473.54 L1928.62 1473.54 L1928.62 1477.43 L1923.69 1477.43 L1923.69 1485.58 L1919.04 1485.58 L1919.04 1477.43 L1903.44 1477.43 L1903.44 1472.92 L1917.81 1451.02 Z" fill="#000000" fill-rule="nonzero" fill-opacity="1" /><path clip-path="url(#clip030)" d="M2286.07 1451.02 L2304.43 1451.02 L2304.43 1454.96 L2290.35 1454.96 L2290.35 1463.43 Q2291.37 1463.08 2292.39 1462.92 Q2293.41 1462.73 2294.43 1462.73 Q2300.21 1462.73 2303.59 1465.9 Q2306.97 1469.08 2306.97 1474.49 Q2306.97 1480.07 2303.5 1483.17 Q2300.03 1486.25 2293.71 1486.25 Q2291.53 1486.25 2289.26 1485.88 Q2287.02 1485.51 2284.61 1484.77 L2284.61 1480.07 Q2286.69 1481.2 2288.92 1481.76 Q2291.14 1482.32 2293.62 1482.32 Q2297.62 1482.32 2299.96 1480.21 Q2302.3 1478.1 2302.3 1474.49 Q2302.3 1470.88 2299.96 1468.77 Q2297.62 1466.67 2293.62 1466.67 Q2291.74 1466.67 2289.87 1467.08 Q2288.01 1467.5 2286.07 1468.38 L2286.07 1451.02 Z" fill="#000000" fill-rule="nonzero" fill-opacity="1" /><path clip-path="url(#clip030)" d="M1216.56 1520.52 L1256.76 1520.52 L1256.76 1525.93 L1239.89 1525.93 L1239.89 1568.04 L1233.43 1568.04 L1233.43 1525.93 L1216.56 1525.93 L1216.56 1520.52 Z" fill="#000000" fill-rule="nonzero" fill-opacity="1" /><path clip-path="url(#clip030)" d="M1260.71 1532.4 L1266.57 1532.4 L1266.57 1568.04 L1260.71 1568.04 L1260.71 1532.4 M1260.71 1518.52 L1266.57 1518.52 L1266.57 1525.93 L1260.71 1525.93 L1260.71 1518.52 Z" fill="#000000" fill-rule="nonzero" fill-opacity="1" /><path clip-path="url(#clip030)" d="M1306.57 1539.24 Q1308.77 1535.29 1311.83 1533.41 Q1314.88 1531.54 1319.02 1531.54 Q1324.59 1531.54 1327.61 1535.45 Q1330.64 1539.33 1330.64 1546.53 L1330.64 1568.04 L1324.75 1568.04 L1324.75 1546.72 Q1324.75 1541.59 1322.93 1539.11 Q1321.12 1536.63 1317.4 1536.63 Q1312.84 1536.63 1310.2 1539.65 Q1307.56 1542.68 1307.56 1547.9 L1307.56 1568.04 L1301.67 1568.04 L1301.67 1546.72 Q1301.67 1541.56 1299.86 1539.11 Q1298.04 1536.63 1294.26 1536.63 Q1289.77 1536.63 1287.13 1539.68 Q1284.49 1542.71 1284.49 1547.9 L1284.49 1568.04 L1278.6 1568.04 L1278.6 1532.4 L1284.49 1532.4 L1284.49 1537.93 Q1286.49 1534.66 1289.29 1533.1 Q1292.09 1531.54 1295.94 1531.54 Q1299.83 1531.54 1302.53 1533.51 Q1305.27 1535.48 1306.57 1539.24 Z" fill="#000000" fill-rule="nonzero" fill-opacity="1" /><path clip-path="url(#clip030)" d="M1372.81 1548.76 L1372.81 1551.62 L1345.88 1551.62 Q1346.26 1557.67 1349.51 1560.85 Q1352.79 1564 1358.61 1564 Q1361.99 1564 1365.14 1563.17 Q1368.32 1562.35 1371.44 1560.69 L1371.44 1566.23 Q1368.29 1567.57 1364.98 1568.27 Q1361.67 1568.97 1358.26 1568.97 Q1349.73 1568.97 1344.74 1564 Q1339.77 1559.04 1339.77 1550.57 Q1339.77 1541.82 1344.48 1536.69 Q1349.22 1531.54 1357.25 1531.54 Q1364.44 1531.54 1368.61 1536.18 Q1372.81 1540.8 1372.81 1548.76 M1366.95 1547.04 Q1366.89 1542.23 1364.25 1539.37 Q1361.64 1536.5 1357.31 1536.5 Q1352.41 1536.5 1349.45 1539.27 Q1346.52 1542.04 1346.07 1547.07 L1366.95 1547.04 Z" fill="#000000" fill-rule="nonzero" fill-opacity="1" /><path clip-path="url(#clip030)" d="M1417.21 1518.58 Q1412.95 1525.9 1410.88 1533.06 Q1408.81 1540.23 1408.81 1547.58 Q1408.81 1554.93 1410.88 1562.16 Q1412.98 1569.35 1417.21 1576.64 L1412.12 1576.64 Q1407.34 1569.16 1404.96 1561.93 Q1402.6 1554.71 1402.6 1547.58 Q1402.6 1540.48 1404.96 1533.29 Q1407.31 1526.09 1412.12 1518.58 L1417.21 1518.58 Z" fill="#000000" fill-rule="nonzero" fill-opacity="1" /><path clip-path="url(#clip030)" d="M1451.3 1533.45 L1451.3 1538.98 Q1448.82 1537.71 1446.14 1537.07 Q1443.47 1536.44 1440.6 1536.44 Q1436.24 1536.44 1434.05 1537.77 Q1431.88 1539.11 1431.88 1541.79 Q1431.88 1543.82 1433.44 1545 Q1435 1546.15 1439.71 1547.2 L1441.72 1547.64 Q1447.96 1548.98 1450.57 1551.43 Q1453.21 1553.85 1453.21 1558.21 Q1453.21 1563.17 1449.26 1566.07 Q1445.35 1568.97 1438.47 1568.97 Q1435.61 1568.97 1432.49 1568.39 Q1429.4 1567.85 1425.96 1566.74 L1425.96 1560.69 Q1429.21 1562.38 1432.36 1563.24 Q1435.51 1564.07 1438.6 1564.07 Q1442.74 1564.07 1444.96 1562.66 Q1447.19 1561.23 1447.19 1558.65 Q1447.19 1556.27 1445.57 1554.99 Q1443.98 1553.72 1438.54 1552.54 L1436.5 1552.07 Q1431.06 1550.92 1428.64 1548.56 Q1426.22 1546.18 1426.22 1542.04 Q1426.22 1537.01 1429.78 1534.27 Q1433.35 1531.54 1439.9 1531.54 Q1443.15 1531.54 1446.02 1532.01 Q1448.88 1532.49 1451.3 1533.45 Z" fill="#000000" fill-rule="nonzero" fill-opacity="1" /><path clip-path="url(#clip030)" d="M1461.61 1518.58 L1466.7 1518.58 Q1471.48 1526.09 1473.83 1533.29 Q1476.22 1540.48 1476.22 1547.58 Q1476.22 1554.71 1473.83 1561.93 Q1471.48 1569.16 1466.7 1576.64 L1461.61 1576.64 Q1465.84 1569.35 1467.91 1562.16 Q1470.01 1554.93 1470.01 1547.58 Q1470.01 1540.23 1467.91 1533.06 Q1465.84 1525.9 1461.61 1518.58 Z" fill="#000000" fill-rule="nonzero" fill-opacity="1" /><polyline clip-path="url(#clip032)" style="stroke:#000000; stroke-linecap:round; stroke-linejoin:round; stroke-width:2; stroke-opacity:0.1; fill:none" points="340.028,1379.81 2352.76,1379.81 "/>
<polyline clip-path="url(#clip032)" style="stroke:#000000; stroke-linecap:round; stroke-linejoin:round; stroke-width:2; stroke-opacity:0.1; fill:none" points="340.028,1057.28 2352.76,1057.28 "/>
<polyline clip-path="url(#clip032)" style="stroke:#000000; stroke-linecap:round; stroke-linejoin:round; stroke-width:2; stroke-opacity:0.1; fill:none" points="340.028,734.752 2352.76,734.752 "/>
<polyline clip-path="url(#clip032)" style="stroke:#000000; stroke-linecap:round; stroke-linejoin:round; stroke-width:2; stroke-opacity:0.1; fill:none" points="340.028,412.221 2352.76,412.221 "/>
<polyline clip-path="url(#clip032)" style="stroke:#000000; stroke-linecap:round; stroke-linejoin:round; stroke-width:2; stroke-opacity:0.1; fill:none" points="340.028,89.6897 2352.76,89.6897 "/>
<polyline clip-path="url(#clip030)" style="stroke:#000000; stroke-linecap:round; stroke-linejoin:round; stroke-width:4; stroke-opacity:1; fill:none" points="340.028,1423.18 340.028,47.2441 "/>
<polyline clip-path="url(#clip030)" style="stroke:#000000; stroke-linecap:round; stroke-linejoin:round; stroke-width:4; stroke-opacity:1; fill:none" points="340.028,1379.81 358.925,1379.81 "/>
<polyline clip-path="url(#clip030)" style="stroke:#000000; stroke-linecap:round; stroke-linejoin:round; stroke-width:4; stroke-opacity:1; fill:none" points="340.028,1057.28 358.925,1057.28 "/>
<polyline clip-path="url(#clip030)" style="stroke:#000000; stroke-linecap:round; stroke-linejoin:round; stroke-width:4; stroke-opacity:1; fill:none" points="340.028,734.752 358.925,734.752 "/>
<polyline clip-path="url(#clip030)" style="stroke:#000000; stroke-linecap:round; stroke-linejoin:round; stroke-width:4; stroke-opacity:1; fill:none" points="340.028,412.221 358.925,412.221 "/>
<polyline clip-path="url(#clip030)" style="stroke:#000000; stroke-linecap:round; stroke-linejoin:round; stroke-width:4; stroke-opacity:1; fill:none" points="340.028,89.6897 358.925,89.6897 "/>
<path clip-path="url(#clip030)" d="M126.205 1365.61 Q122.593 1365.61 120.765 1369.18 Q118.959 1372.72 118.959 1379.85 Q118.959 1386.95 120.765 1390.52 Q122.593 1394.06 126.205 1394.06 Q129.839 1394.06 131.644 1390.52 Q133.473 1386.95 133.473 1379.85 Q133.473 1372.72 131.644 1369.18 Q129.839 1365.61 126.205 1365.61 M126.205 1361.91 Q132.015 1361.91 135.07 1366.51 Q138.149 1371.1 138.149 1379.85 Q138.149 1388.58 135.07 1393.18 Q132.015 1397.76 126.205 1397.76 Q120.394 1397.76 117.316 1393.18 Q114.26 1388.58 114.26 1379.85 Q114.26 1371.1 117.316 1366.51 Q120.394 1361.91 126.205 1361.91 Z" fill="#000000" fill-rule="nonzero" fill-opacity="1" /><path clip-path="url(#clip030)" d="M146.366 1391.21 L151.251 1391.21 L151.251 1397.09 L146.366 1397.09 L146.366 1391.21 Z" fill="#000000" fill-rule="nonzero" fill-opacity="1" /><path clip-path="url(#clip030)" d="M171.436 1365.61 Q167.825 1365.61 165.996 1369.18 Q164.19 1372.72 164.19 1379.85 Q164.19 1386.95 165.996 1390.52 Q167.825 1394.06 171.436 1394.06 Q175.07 1394.06 176.876 1390.52 Q178.704 1386.95 178.704 1379.85 Q178.704 1372.72 176.876 1369.18 Q175.07 1365.61 171.436 1365.61 M171.436 1361.91 Q177.246 1361.91 180.301 1366.51 Q183.38 1371.1 183.38 1379.85 Q183.38 1388.58 180.301 1393.18 Q177.246 1397.76 171.436 1397.76 Q165.626 1397.76 162.547 1393.18 Q159.491 1388.58 159.491 1379.85 Q159.491 1371.1 162.547 1366.51 Q165.626 1361.91 171.436 1361.91 Z" fill="#000000" fill-rule="nonzero" fill-opacity="1" /><path clip-path="url(#clip030)" d="M201.598 1365.61 Q197.987 1365.61 196.158 1369.18 Q194.352 1372.72 194.352 1379.85 Q194.352 1386.95 196.158 1390.52 Q197.987 1394.06 201.598 1394.06 Q205.232 1394.06 207.037 1390.52 Q208.866 1386.95 208.866 1379.85 Q208.866 1372.72 207.037 1369.18 Q205.232 1365.61 201.598 1365.61 M201.598 1361.91 Q207.408 1361.91 210.463 1366.51 Q213.542 1371.1 213.542 1379.85 Q213.542 1388.58 210.463 1393.18 Q207.408 1397.76 201.598 1397.76 Q195.787 1397.76 192.709 1393.18 Q189.653 1388.58 189.653 1379.85 Q189.653 1371.1 192.709 1366.51 Q195.787 1361.91 201.598 1361.91 Z" fill="#000000" fill-rule="nonzero" fill-opacity="1" /><path clip-path="url(#clip030)" d="M231.76 1365.61 Q228.148 1365.61 226.32 1369.18 Q224.514 1372.72 224.514 1379.85 Q224.514 1386.95 226.32 1390.52 Q228.148 1394.06 231.76 1394.06 Q235.394 1394.06 237.199 1390.52 Q239.028 1386.95 239.028 1379.85 Q239.028 1372.72 237.199 1369.18 Q235.394 1365.61 231.76 1365.61 M231.76 1361.91 Q237.57 1361.91 240.625 1366.51 Q243.704 1371.1 243.704 1379.85 Q243.704 1388.58 240.625 1393.18 Q237.57 1397.76 231.76 1397.76 Q225.949 1397.76 222.871 1393.18 Q219.815 1388.58 219.815 1379.85 Q219.815 1371.1 222.871 1366.51 Q225.949 1361.91 231.76 1361.91 Z" fill="#000000" fill-rule="nonzero" fill-opacity="1" /><path clip-path="url(#clip030)" d="M261.921 1365.61 Q258.31 1365.61 256.482 1369.18 Q254.676 1372.72 254.676 1379.85 Q254.676 1386.95 256.482 1390.52 Q258.31 1394.06 261.921 1394.06 Q265.556 1394.06 267.361 1390.52 Q269.19 1386.95 269.19 1379.85 Q269.19 1372.72 267.361 1369.18 Q265.556 1365.61 261.921 1365.61 M261.921 1361.91 Q267.732 1361.91 270.787 1366.51 Q273.866 1371.1 273.866 1379.85 Q273.866 1388.58 270.787 1393.18 Q267.732 1397.76 261.921 1397.76 Q256.111 1397.76 253.033 1393.18 Q249.977 1388.58 249.977 1379.85 Q249.977 1371.1 253.033 1366.51 Q256.111 1361.91 261.921 1361.91 Z" fill="#000000" fill-rule="nonzero" fill-opacity="1" /><path clip-path="url(#clip030)" d="M292.083 1365.61 Q288.472 1365.61 286.643 1369.18 Q284.838 1372.72 284.838 1379.85 Q284.838 1386.95 286.643 1390.52 Q288.472 1394.06 292.083 1394.06 Q295.718 1394.06 297.523 1390.52 Q299.352 1386.95 299.352 1379.85 Q299.352 1372.72 297.523 1369.18 Q295.718 1365.61 292.083 1365.61 M292.083 1361.91 Q297.893 1361.91 300.949 1366.51 Q304.028 1371.1 304.028 1379.85 Q304.028 1388.58 300.949 1393.18 Q297.893 1397.76 292.083 1397.76 Q286.273 1397.76 283.194 1393.18 Q280.139 1388.58 280.139 1379.85 Q280.139 1371.1 283.194 1366.51 Q286.273 1361.91 292.083 1361.91 Z" fill="#000000" fill-rule="nonzero" fill-opacity="1" /><path clip-path="url(#clip030)" d="M127.2 1043.08 Q123.589 1043.08 121.76 1046.65 Q119.955 1050.19 119.955 1057.32 Q119.955 1064.42 121.76 1067.99 Q123.589 1071.53 127.2 1071.53 Q130.834 1071.53 132.64 1067.99 Q134.468 1064.42 134.468 1057.32 Q134.468 1050.19 132.64 1046.65 Q130.834 1043.08 127.2 1043.08 M127.2 1039.38 Q133.01 1039.38 136.066 1043.98 Q139.144 1048.57 139.144 1057.32 Q139.144 1066.04 136.066 1070.65 Q133.01 1075.23 127.2 1075.23 Q121.39 1075.23 118.311 1070.65 Q115.256 1066.04 115.256 1057.32 Q115.256 1048.57 118.311 1043.98 Q121.39 1039.38 127.2 1039.38 Z" fill="#000000" fill-rule="nonzero" fill-opacity="1" /><path clip-path="url(#clip030)" d="M147.362 1068.68 L152.246 1068.68 L152.246 1074.56 L147.362 1074.56 L147.362 1068.68 Z" fill="#000000" fill-rule="nonzero" fill-opacity="1" /><path clip-path="url(#clip030)" d="M172.431 1043.08 Q168.82 1043.08 166.991 1046.65 Q165.186 1050.19 165.186 1057.32 Q165.186 1064.42 166.991 1067.99 Q168.82 1071.53 172.431 1071.53 Q176.065 1071.53 177.871 1067.99 Q179.7 1064.42 179.7 1057.32 Q179.7 1050.19 177.871 1046.65 Q176.065 1043.08 172.431 1043.08 M172.431 1039.38 Q178.241 1039.38 181.297 1043.98 Q184.376 1048.57 184.376 1057.32 Q184.376 1066.04 181.297 1070.65 Q178.241 1075.23 172.431 1075.23 Q166.621 1075.23 163.542 1070.65 Q160.487 1066.04 160.487 1057.32 Q160.487 1048.57 163.542 1043.98 Q166.621 1039.38 172.431 1039.38 Z" fill="#000000" fill-rule="nonzero" fill-opacity="1" /><path clip-path="url(#clip030)" d="M202.593 1043.08 Q198.982 1043.08 197.153 1046.65 Q195.348 1050.19 195.348 1057.32 Q195.348 1064.42 197.153 1067.99 Q198.982 1071.53 202.593 1071.53 Q206.227 1071.53 208.033 1067.99 Q209.861 1064.42 209.861 1057.32 Q209.861 1050.19 208.033 1046.65 Q206.227 1043.08 202.593 1043.08 M202.593 1039.38 Q208.403 1039.38 211.459 1043.98 Q214.537 1048.57 214.537 1057.32 Q214.537 1066.04 211.459 1070.65 Q208.403 1075.23 202.593 1075.23 Q196.783 1075.23 193.704 1070.65 Q190.649 1066.04 190.649 1057.32 Q190.649 1048.57 193.704 1043.98 Q196.783 1039.38 202.593 1039.38 Z" fill="#000000" fill-rule="nonzero" fill-opacity="1" /><path clip-path="url(#clip030)" d="M232.755 1043.08 Q229.144 1043.08 227.315 1046.65 Q225.51 1050.19 225.51 1057.32 Q225.51 1064.42 227.315 1067.99 Q229.144 1071.53 232.755 1071.53 Q236.389 1071.53 238.195 1067.99 Q240.023 1064.42 240.023 1057.32 Q240.023 1050.19 238.195 1046.65 Q236.389 1043.08 232.755 1043.08 M232.755 1039.38 Q238.565 1039.38 241.621 1043.98 Q244.699 1048.57 244.699 1057.32 Q244.699 1066.04 241.621 1070.65 Q238.565 1075.23 232.755 1075.23 Q226.945 1075.23 223.866 1070.65 Q220.811 1066.04 220.811 1057.32 Q220.811 1048.57 223.866 1043.98 Q226.945 1039.38 232.755 1039.38 Z" fill="#000000" fill-rule="nonzero" fill-opacity="1" /><path clip-path="url(#clip030)" d="M256.945 1070.63 L273.264 1070.63 L273.264 1074.56 L251.32 1074.56 L251.32 1070.63 Q253.982 1067.87 258.565 1063.24 Q263.171 1058.59 264.352 1057.25 Q266.597 1054.72 267.477 1052.99 Q268.38 1051.23 268.38 1049.54 Q268.38 1046.78 266.435 1045.05 Q264.514 1043.31 261.412 1043.31 Q259.213 1043.31 256.759 1044.08 Q254.329 1044.84 251.551 1046.39 L251.551 1041.67 Q254.375 1040.53 256.829 1039.96 Q259.283 1039.38 261.32 1039.38 Q266.69 1039.38 269.884 1042.06 Q273.079 1044.75 273.079 1049.24 Q273.079 1051.37 272.269 1053.29 Q271.482 1055.19 269.375 1057.78 Q268.796 1058.45 265.695 1061.67 Q262.593 1064.86 256.945 1070.63 Z" fill="#000000" fill-rule="nonzero" fill-opacity="1" /><path clip-path="url(#clip030)" d="M283.125 1040 L301.481 1040 L301.481 1043.94 L287.407 1043.94 L287.407 1052.41 Q288.426 1052.06 289.444 1051.9 Q290.463 1051.72 291.481 1051.72 Q297.268 1051.72 300.648 1054.89 Q304.028 1058.06 304.028 1063.47 Q304.028 1069.05 300.555 1072.16 Q297.083 1075.23 290.764 1075.23 Q288.588 1075.23 286.319 1074.86 Q284.074 1074.49 281.667 1073.75 L281.667 1069.05 Q283.75 1070.19 285.972 1070.74 Q288.194 1071.3 290.671 1071.3 Q294.676 1071.3 297.014 1069.19 Q299.352 1067.09 299.352 1063.47 Q299.352 1059.86 297.014 1057.76 Q294.676 1055.65 290.671 1055.65 Q288.796 1055.65 286.921 1056.07 Q285.069 1056.48 283.125 1057.36 L283.125 1040 Z" fill="#000000" fill-rule="nonzero" fill-opacity="1" /><path clip-path="url(#clip030)" d="M126.205 720.55 Q122.593 720.55 120.765 724.115 Q118.959 727.657 118.959 734.786 Q118.959 741.893 120.765 745.458 Q122.593 748.999 126.205 748.999 Q129.839 748.999 131.644 745.458 Q133.473 741.893 133.473 734.786 Q133.473 727.657 131.644 724.115 Q129.839 720.55 126.205 720.55 M126.205 716.847 Q132.015 716.847 135.07 721.453 Q138.149 726.036 138.149 734.786 Q138.149 743.513 135.07 748.12 Q132.015 752.703 126.205 752.703 Q120.394 752.703 117.316 748.12 Q114.26 743.513 114.26 734.786 Q114.26 726.036 117.316 721.453 Q120.394 716.847 126.205 716.847 Z" fill="#000000" fill-rule="nonzero" fill-opacity="1" /><path clip-path="url(#clip030)" d="M146.366 746.152 L151.251 746.152 L151.251 752.032 L146.366 752.032 L146.366 746.152 Z" fill="#000000" fill-rule="nonzero" fill-opacity="1" /><path clip-path="url(#clip030)" d="M171.436 720.55 Q167.825 720.55 165.996 724.115 Q164.19 727.657 164.19 734.786 Q164.19 741.893 165.996 745.458 Q167.825 748.999 171.436 748.999 Q175.07 748.999 176.876 745.458 Q178.704 741.893 178.704 734.786 Q178.704 727.657 176.876 724.115 Q175.07 720.55 171.436 720.55 M171.436 716.847 Q177.246 716.847 180.301 721.453 Q183.38 726.036 183.38 734.786 Q183.38 743.513 180.301 748.12 Q177.246 752.703 171.436 752.703 Q165.626 752.703 162.547 748.12 Q159.491 743.513 159.491 734.786 Q159.491 726.036 162.547 721.453 Q165.626 716.847 171.436 716.847 Z" fill="#000000" fill-rule="nonzero" fill-opacity="1" /><path clip-path="url(#clip030)" d="M201.598 720.55 Q197.987 720.55 196.158 724.115 Q194.352 727.657 194.352 734.786 Q194.352 741.893 196.158 745.458 Q197.987 748.999 201.598 748.999 Q205.232 748.999 207.037 745.458 Q208.866 741.893 208.866 734.786 Q208.866 727.657 207.037 724.115 Q205.232 720.55 201.598 720.55 M201.598 716.847 Q207.408 716.847 210.463 721.453 Q213.542 726.036 213.542 734.786 Q213.542 743.513 210.463 748.12 Q207.408 752.703 201.598 752.703 Q195.787 752.703 192.709 748.12 Q189.653 743.513 189.653 734.786 Q189.653 726.036 192.709 721.453 Q195.787 716.847 201.598 716.847 Z" fill="#000000" fill-rule="nonzero" fill-opacity="1" /><path clip-path="url(#clip030)" d="M231.76 720.55 Q228.148 720.55 226.32 724.115 Q224.514 727.657 224.514 734.786 Q224.514 741.893 226.32 745.458 Q228.148 748.999 231.76 748.999 Q235.394 748.999 237.199 745.458 Q239.028 741.893 239.028 734.786 Q239.028 727.657 237.199 724.115 Q235.394 720.55 231.76 720.55 M231.76 716.847 Q237.57 716.847 240.625 721.453 Q243.704 726.036 243.704 734.786 Q243.704 743.513 240.625 748.12 Q237.57 752.703 231.76 752.703 Q225.949 752.703 222.871 748.12 Q219.815 743.513 219.815 734.786 Q219.815 726.036 222.871 721.453 Q225.949 716.847 231.76 716.847 Z" fill="#000000" fill-rule="nonzero" fill-opacity="1" /><path clip-path="url(#clip030)" d="M251.968 717.472 L270.324 717.472 L270.324 721.407 L256.25 721.407 L256.25 729.879 Q257.269 729.532 258.287 729.37 Q259.306 729.184 260.324 729.184 Q266.111 729.184 269.491 732.356 Q272.87 735.527 272.87 740.944 Q272.87 746.522 269.398 749.624 Q265.926 752.703 259.607 752.703 Q257.431 752.703 255.162 752.333 Q252.917 751.962 250.509 751.221 L250.509 746.522 Q252.593 747.657 254.815 748.212 Q257.037 748.768 259.514 748.768 Q263.519 748.768 265.857 746.661 Q268.195 744.555 268.195 740.944 Q268.195 737.333 265.857 735.226 Q263.519 733.12 259.514 733.12 Q257.639 733.12 255.764 733.536 Q253.912 733.953 251.968 734.833 L251.968 717.472 Z" fill="#000000" fill-rule="nonzero" fill-opacity="1" /><path clip-path="url(#clip030)" d="M292.083 720.55 Q288.472 720.55 286.643 724.115 Q284.838 727.657 284.838 734.786 Q284.838 741.893 286.643 745.458 Q288.472 748.999 292.083 748.999 Q295.718 748.999 297.523 745.458 Q299.352 741.893 299.352 734.786 Q299.352 727.657 297.523 724.115 Q295.718 720.55 292.083 720.55 M292.083 716.847 Q297.893 716.847 300.949 721.453 Q304.028 726.036 304.028 734.786 Q304.028 743.513 300.949 748.12 Q297.893 752.703 292.083 752.703 Q286.273 752.703 283.194 748.12 Q280.139 743.513 280.139 734.786 Q280.139 726.036 283.194 721.453 Q286.273 716.847 292.083 716.847 Z" fill="#000000" fill-rule="nonzero" fill-opacity="1" /><path clip-path="url(#clip030)" d="M127.2 398.019 Q123.589 398.019 121.76 401.584 Q119.955 405.126 119.955 412.255 Q119.955 419.362 121.76 422.927 Q123.589 426.468 127.2 426.468 Q130.834 426.468 132.64 422.927 Q134.468 419.362 134.468 412.255 Q134.468 405.126 132.64 401.584 Q130.834 398.019 127.2 398.019 M127.2 394.316 Q133.01 394.316 136.066 398.922 Q139.144 403.505 139.144 412.255 Q139.144 420.982 136.066 425.589 Q133.01 430.172 127.2 430.172 Q121.39 430.172 118.311 425.589 Q115.256 420.982 115.256 412.255 Q115.256 403.505 118.311 398.922 Q121.39 394.316 127.2 394.316 Z" fill="#000000" fill-rule="nonzero" fill-opacity="1" /><path clip-path="url(#clip030)" d="M147.362 423.621 L152.246 423.621 L152.246 429.501 L147.362 429.501 L147.362 423.621 Z" fill="#000000" fill-rule="nonzero" fill-opacity="1" /><path clip-path="url(#clip030)" d="M172.431 398.019 Q168.82 398.019 166.991 401.584 Q165.186 405.126 165.186 412.255 Q165.186 419.362 166.991 422.927 Q168.82 426.468 172.431 426.468 Q176.065 426.468 177.871 422.927 Q179.7 419.362 179.7 412.255 Q179.7 405.126 177.871 401.584 Q176.065 398.019 172.431 398.019 M172.431 394.316 Q178.241 394.316 181.297 398.922 Q184.376 403.505 184.376 412.255 Q184.376 420.982 181.297 425.589 Q178.241 430.172 172.431 430.172 Q166.621 430.172 163.542 425.589 Q160.487 420.982 160.487 412.255 Q160.487 403.505 163.542 398.922 Q166.621 394.316 172.431 394.316 Z" fill="#000000" fill-rule="nonzero" fill-opacity="1" /><path clip-path="url(#clip030)" d="M202.593 398.019 Q198.982 398.019 197.153 401.584 Q195.348 405.126 195.348 412.255 Q195.348 419.362 197.153 422.927 Q198.982 426.468 202.593 426.468 Q206.227 426.468 208.033 422.927 Q209.861 419.362 209.861 412.255 Q209.861 405.126 208.033 401.584 Q206.227 398.019 202.593 398.019 M202.593 394.316 Q208.403 394.316 211.459 398.922 Q214.537 403.505 214.537 412.255 Q214.537 420.982 211.459 425.589 Q208.403 430.172 202.593 430.172 Q196.783 430.172 193.704 425.589 Q190.649 420.982 190.649 412.255 Q190.649 403.505 193.704 398.922 Q196.783 394.316 202.593 394.316 Z" fill="#000000" fill-rule="nonzero" fill-opacity="1" /><path clip-path="url(#clip030)" d="M232.755 398.019 Q229.144 398.019 227.315 401.584 Q225.51 405.126 225.51 412.255 Q225.51 419.362 227.315 422.927 Q229.144 426.468 232.755 426.468 Q236.389 426.468 238.195 422.927 Q240.023 419.362 240.023 412.255 Q240.023 405.126 238.195 401.584 Q236.389 398.019 232.755 398.019 M232.755 394.316 Q238.565 394.316 241.621 398.922 Q244.699 403.505 244.699 412.255 Q244.699 420.982 241.621 425.589 Q238.565 430.172 232.755 430.172 Q226.945 430.172 223.866 425.589 Q220.811 420.982 220.811 412.255 Q220.811 403.505 223.866 398.922 Q226.945 394.316 232.755 394.316 Z" fill="#000000" fill-rule="nonzero" fill-opacity="1" /><path clip-path="url(#clip030)" d="M251.736 394.941 L273.958 394.941 L273.958 396.931 L261.412 429.501 L256.528 429.501 L268.333 398.876 L251.736 398.876 L251.736 394.941 Z" fill="#000000" fill-rule="nonzero" fill-opacity="1" /><path clip-path="url(#clip030)" d="M283.125 394.941 L301.481 394.941 L301.481 398.876 L287.407 398.876 L287.407 407.348 Q288.426 407.001 289.444 406.839 Q290.463 406.654 291.481 406.654 Q297.268 406.654 300.648 409.825 Q304.028 412.996 304.028 418.413 Q304.028 423.991 300.555 427.093 Q297.083 430.172 290.764 430.172 Q288.588 430.172 286.319 429.802 Q284.074 429.431 281.667 428.69 L281.667 423.991 Q283.75 425.126 285.972 425.681 Q288.194 426.237 290.671 426.237 Q294.676 426.237 297.014 424.13 Q299.352 422.024 299.352 418.413 Q299.352 414.802 297.014 412.695 Q294.676 410.589 290.671 410.589 Q288.796 410.589 286.921 411.005 Q285.069 411.422 283.125 412.302 L283.125 394.941 Z" fill="#000000" fill-rule="nonzero" fill-opacity="1" /><path clip-path="url(#clip030)" d="M126.205 75.4884 Q122.593 75.4884 120.765 79.0532 Q118.959 82.5948 118.959 89.7244 Q118.959 96.8309 120.765 100.396 Q122.593 103.937 126.205 103.937 Q129.839 103.937 131.644 100.396 Q133.473 96.8309 133.473 89.7244 Q133.473 82.5948 131.644 79.0532 Q129.839 75.4884 126.205 75.4884 M126.205 71.7847 Q132.015 71.7847 135.07 76.3911 Q138.149 80.9745 138.149 89.7244 Q138.149 98.4512 135.07 103.058 Q132.015 107.641 126.205 107.641 Q120.394 107.641 117.316 103.058 Q114.26 98.4512 114.26 89.7244 Q114.26 80.9745 117.316 76.3911 Q120.394 71.7847 126.205 71.7847 Z" fill="#000000" fill-rule="nonzero" fill-opacity="1" /><path clip-path="url(#clip030)" d="M146.366 101.09 L151.251 101.09 L151.251 106.97 L146.366 106.97 L146.366 101.09 Z" fill="#000000" fill-rule="nonzero" fill-opacity="1" /><path clip-path="url(#clip030)" d="M171.436 75.4884 Q167.825 75.4884 165.996 79.0532 Q164.19 82.5948 164.19 89.7244 Q164.19 96.8309 165.996 100.396 Q167.825 103.937 171.436 103.937 Q175.07 103.937 176.876 100.396 Q178.704 96.8309 178.704 89.7244 Q178.704 82.5948 176.876 79.0532 Q175.07 75.4884 171.436 75.4884 M171.436 71.7847 Q177.246 71.7847 180.301 76.3911 Q183.38 80.9745 183.38 89.7244 Q183.38 98.4512 180.301 103.058 Q177.246 107.641 171.436 107.641 Q165.626 107.641 162.547 103.058 Q159.491 98.4512 159.491 89.7244 Q159.491 80.9745 162.547 76.3911 Q165.626 71.7847 171.436 71.7847 Z" fill="#000000" fill-rule="nonzero" fill-opacity="1" /><path clip-path="url(#clip030)" d="M201.598 75.4884 Q197.987 75.4884 196.158 79.0532 Q194.352 82.5948 194.352 89.7244 Q194.352 96.8309 196.158 100.396 Q197.987 103.937 201.598 103.937 Q205.232 103.937 207.037 100.396 Q208.866 96.8309 208.866 89.7244 Q208.866 82.5948 207.037 79.0532 Q205.232 75.4884 201.598 75.4884 M201.598 71.7847 Q207.408 71.7847 210.463 76.3911 Q213.542 80.9745 213.542 89.7244 Q213.542 98.4512 210.463 103.058 Q207.408 107.641 201.598 107.641 Q195.787 107.641 192.709 103.058 Q189.653 98.4512 189.653 89.7244 Q189.653 80.9745 192.709 76.3911 Q195.787 71.7847 201.598 71.7847 Z" fill="#000000" fill-rule="nonzero" fill-opacity="1" /><path clip-path="url(#clip030)" d="M222.57 103.035 L230.209 103.035 L230.209 76.6689 L221.898 78.3356 L221.898 74.0763 L230.162 72.4097 L234.838 72.4097 L234.838 103.035 L242.477 103.035 L242.477 106.97 L222.57 106.97 L222.57 103.035 Z" fill="#000000" fill-rule="nonzero" fill-opacity="1" /><path clip-path="url(#clip030)" d="M261.921 75.4884 Q258.31 75.4884 256.482 79.0532 Q254.676 82.5948 254.676 89.7244 Q254.676 96.8309 256.482 100.396 Q258.31 103.937 261.921 103.937 Q265.556 103.937 267.361 100.396 Q269.19 96.8309 269.19 89.7244 Q269.19 82.5948 267.361 79.0532 Q265.556 75.4884 261.921 75.4884 M261.921 71.7847 Q267.732 71.7847 270.787 76.3911 Q273.866 80.9745 273.866 89.7244 Q273.866 98.4512 270.787 103.058 Q267.732 107.641 261.921 107.641 Q256.111 107.641 253.033 103.058 Q249.977 98.4512 249.977 89.7244 Q249.977 80.9745 253.033 76.3911 Q256.111 71.7847 261.921 71.7847 Z" fill="#000000" fill-rule="nonzero" fill-opacity="1" /><path clip-path="url(#clip030)" d="M292.083 75.4884 Q288.472 75.4884 286.643 79.0532 Q284.838 82.5948 284.838 89.7244 Q284.838 96.8309 286.643 100.396 Q288.472 103.937 292.083 103.937 Q295.718 103.937 297.523 100.396 Q299.352 96.8309 299.352 89.7244 Q299.352 82.5948 297.523 79.0532 Q295.718 75.4884 292.083 75.4884 M292.083 71.7847 Q297.893 71.7847 300.949 76.3911 Q304.028 80.9745 304.028 89.7244 Q304.028 98.4512 300.949 103.058 Q297.893 107.641 292.083 107.641 Q286.273 107.641 283.194 103.058 Q280.139 98.4512 280.139 89.7244 Q280.139 80.9745 283.194 76.3911 Q286.273 71.7847 292.083 71.7847 Z" fill="#000000" fill-rule="nonzero" fill-opacity="1" /><path clip-path="url(#clip030)" d="M67.3143 733.525 Q73.68 736.008 75.6216 738.363 Q77.5631 740.718 77.5631 744.665 L77.5631 749.344 L72.6615 749.344 L72.6615 745.906 Q72.6615 743.487 71.5157 742.151 Q70.3699 740.814 66.1048 739.191 L63.4312 738.14 L28.3562 752.559 L28.3562 746.352 L56.238 735.212 L28.3562 724.072 L28.3562 717.865 L67.3143 733.525 Z" fill="#000000" fill-rule="nonzero" fill-opacity="1" /><polyline clip-path="url(#clip032)" style="stroke:#009af9; stroke-linecap:round; stroke-linejoin:round; stroke-width:4; stroke-opacity:1; fill:none" points="396.992,1379.81 400.789,1379.81 400.789,1316.79 404.587,1316.79 404.587,1196.57 408.384,1196.57 408.384,1084.75 412.182,1084.75 412.182,980.954 415.98,980.954 415.98,884.788 419.777,884.788 419.777,795.889 423.575,795.889 423.575,713.902 427.372,713.902 427.372,638.486 431.17,638.486 431.17,569.314 434.968,569.314 434.968,506.072 438.765,506.072 438.765,448.454 442.563,448.454 442.563,396.171 446.36,396.171 446.36,348.943 450.158,348.943 450.158,306.5 453.956,306.5 453.956,268.585 457.753,268.585 457.753,234.95 461.551,234.95 461.551,205.358 465.348,205.358 465.348,179.582 469.146,179.582 469.146,157.402 472.944,157.402 472.944,138.611 476.741,138.611 476.741,123.007 480.539,123.007 480.539,110.401 484.336,110.401 484.336,100.608 488.134,100.608 488.134,93.4536 491.932,93.4536 491.932,88.7705 495.729,88.7705 495.729,86.3987 499.527,86.3987 499.527,86.1857 503.324,86.1857 503.324,87.9858 507.122,87.9858 507.122,91.6602 510.92,91.6602 510.92,97.0765 514.717,97.0765 514.717,104.109 518.515,104.109 518.515,112.636 522.312,112.636 522.312,122.545 526.11,122.545 526.11,133.727 529.908,133.727 529.908,146.078 533.705,146.078 533.705,159.5 537.503,159.5 537.503,173.901 541.3,173.901 541.3,189.191 545.098,189.191 545.098,205.287 548.896,205.287 548.896,222.109 552.693,222.109 552.693,239.583 556.491,239.583 556.491,257.637 560.288,257.637 560.288,276.205 564.086,276.205 564.086,295.223 567.884,295.223 567.884,314.63 571.681,314.63 571.681,334.371 575.479,334.371 575.479,354.393 579.276,354.393 579.276,374.646 583.074,374.646 583.074,395.082 586.872,395.082 586.872,415.659 590.669,415.659 590.669,436.334 594.467,436.334 594.467,457.069 598.264,457.069 598.264,477.828 602.062,477.828 602.062,498.577 605.86,498.577 605.86,519.285 609.657,519.285 609.657,539.922 613.455,539.922 613.455,560.462 617.252,560.462 617.252,580.879 621.05,580.879 621.05,601.151 624.848,601.151 624.848,621.255 628.645,621.255 628.645,641.172 632.443,641.172 632.443,660.883 636.24,660.883 636.24,680.373 640.038,680.373 640.038,699.626 643.836,699.626 643.836,718.628 647.633,718.628 647.633,737.367 651.431,737.367 651.431,755.832 655.228,755.832 655.228,774.013 659.026,774.013 659.026,791.9 662.824,791.9 662.824,809.487 666.621,809.487 666.621,826.766 670.419,826.766 670.419,843.731 674.217,843.731 674.217,860.377 678.014,860.377 678.014,876.701 681.812,876.701 681.812,892.699 685.609,892.699 685.609,908.367 689.407,908.367 689.407,923.705 693.205,923.705 693.205,938.71 697.002,938.71 697.002,953.383 700.8,953.383 700.8,967.722 704.597,967.722 704.597,981.729 708.395,981.729 708.395,995.404 712.193,995.404 712.193,1008.75 715.99,1008.75 715.99,1021.76 719.788,1021.76 719.788,1034.45 723.585,1034.45 723.585,1046.82 727.383,1046.82 727.383,1058.86 731.181,1058.86 731.181,1070.58 734.978,1070.58 734.978,1081.99 738.776,1081.99 738.776,1093.09 742.573,1093.09 742.573,1103.88 746.371,1103.88 746.371,1114.37 750.169,1114.37 750.169,1124.56 753.966,1124.56 753.966,1134.46 757.764,1134.46 757.764,1144.06 761.561,1144.06 761.561,1153.38 765.359,1153.38 765.359,1162.42 769.157,1162.42 769.157,1171.19 772.954,1171.19 772.954,1179.68 776.752,1179.68 776.752,1187.91 780.549,1187.91 780.549,1195.88 784.347,1195.88 784.347,1203.59 788.145,1203.59 788.145,1211.06 791.942,1211.06 791.942,1218.28 795.74,1218.28 795.74,1225.26 799.537,1225.26 799.537,1232.01 803.335,1232.01 803.335,1238.53 807.133,1238.53 807.133,1244.83 810.93,1244.83 810.93,1250.91 814.728,1250.91 814.728,1256.78 818.525,1256.78 818.525,1262.45 822.323,1262.45 822.323,1267.91 826.121,1267.91 826.121,1273.17 829.918,1273.17 829.918,1278.25 833.716,1278.25 833.716,1283.14 837.513,1283.14 837.513,1287.84 841.311,1287.84 841.311,1292.37 845.109,1292.37 845.109,1296.73 848.906,1296.73 848.906,1300.93 852.704,1300.93 852.704,1304.96 856.501,1304.96 856.501,1308.83 860.299,1308.83 860.299,1312.55 864.097,1312.55 864.097,1316.13 867.894,1316.13 867.894,1319.56 871.692,1319.56 871.692,1322.85 875.489,1322.85 875.489,1326.01 879.287,1326.01 879.287,1329.04 883.085,1329.04 883.085,1331.94 886.882,1331.94 886.882,1334.72 890.68,1334.72 890.68,1337.38 894.477,1337.38 894.477,1339.93 898.275,1339.93 898.275,1342.36 902.073,1342.36 902.073,1344.69 905.87,1344.69 905.87,1346.92 909.668,1346.92 909.668,1349.04 913.465,1349.04 913.465,1351.07 917.263,1351.07 917.263,1353.01 921.061,1353.01 921.061,1354.86 924.858,1354.86 924.858,1356.62 928.656,1356.62 928.656,1358.3 932.453,1358.3 932.453,1359.9 936.251,1359.9 936.251,1361.42 940.049,1361.42 940.049,1362.86 943.846,1362.86 943.846,1364.24 947.644,1364.24 947.644,1365.54 951.441,1365.54 951.441,1366.78 955.239,1366.78 955.239,1367.96 959.037,1367.96 959.037,1369.07 962.834,1369.07 962.834,1370.13 966.632,1370.13 966.632,1371.13 970.429,1371.13 970.429,1372.07 974.227,1372.07 974.227,1372.97 978.025,1372.97 978.025,1373.81 981.822,1373.81 981.822,1374.61 985.62,1374.61 985.62,1375.36 989.417,1375.36 989.417,1376.06 993.215,1376.06 993.215,1376.73 997.013,1376.73 997.013,1377.35 1000.81,1377.35 1000.81,1377.94 1004.61,1377.94 1004.61,1378.49 1008.41,1378.49 1008.41,1379 1012.2,1379 1012.2,1379.48 1016,1379.48 1016,1379.93 1019.8,1379.93 1019.8,1380.35 1023.6,1380.35 1023.6,1380.74 1027.39,1380.74 1027.39,1381.1 1031.19,1381.1 1031.19,1381.43 1034.99,1381.43 1034.99,1381.74 1038.79,1381.74 1038.79,1382.03 1042.58,1382.03 1042.58,1382.29 1046.38,1382.29 1046.38,1382.53 1050.18,1382.53 1050.18,1382.75 1053.98,1382.75 1053.98,1382.95 1057.77,1382.95 1057.77,1383.14 1061.57,1383.14 1061.57,1383.3 1065.37,1383.3 1065.37,1383.45 1069.17,1383.45 1069.17,1383.59 1072.96,1383.59 1072.96,1383.7 1076.76,1383.7 1076.76,1383.81 1080.56,1383.81 1080.56,1383.9 1084.36,1383.9 1084.36,1383.98 1088.15,1383.98 1088.15,1384.04 1091.95,1384.04 1091.95,1384.1 1095.75,1384.1 1095.75,1384.15 1099.55,1384.15 1099.55,1384.18 1103.35,1384.18 1103.35,1384.21 1107.14,1384.21 1107.14,1384.23 1110.94,1384.23 1110.94,1384.24 1114.74,1384.24 1114.74,1384.24 1118.54,1384.24 1118.54,1384.23 1122.33,1384.23 1122.33,1384.22 1126.13,1384.22 1126.13,1384.21 1129.93,1384.21 1129.93,1384.18 1133.73,1384.18 1133.73,1384.15 1137.52,1384.15 1137.52,1384.12 1141.32,1384.12 1141.32,1384.08 1145.12,1384.08 1145.12,1384.04 1148.92,1384.04 1148.92,1384 1152.71,1384 1152.71,1383.95 1156.51,1383.95 1156.51,1383.9 1160.31,1383.9 1160.31,1383.84 1164.11,1383.84 1164.11,1383.79 1167.9,1383.79 1167.9,1383.73 1171.7,1383.73 1171.7,1383.67 1175.5,1383.67 1175.5,1383.6 1179.3,1383.6 1179.3,1383.54 1183.09,1383.54 1183.09,1383.47 1186.89,1383.47 1186.89,1383.4 1190.69,1383.4 1190.69,1383.34 1194.49,1383.34 1194.49,1383.27 1198.29,1383.27 1198.29,1383.2 1202.08,1383.2 1202.08,1383.13 1205.88,1383.13 1205.88,1383.06 1209.68,1383.06 1209.68,1382.99 1213.48,1382.99 1213.48,1382.91 1217.27,1382.91 1217.27,1382.84 1221.07,1382.84 1221.07,1382.77 1224.87,1382.77 1224.87,1382.7 1228.67,1382.7 1228.67,1382.63 1232.46,1382.63 1232.46,1382.56 1236.26,1382.56 1236.26,1382.49 1240.06,1382.49 1240.06,1382.42 1243.86,1382.42 1243.86,1382.36 1247.65,1382.36 1247.65,1382.29 1251.45,1382.29 1251.45,1382.22 1255.25,1382.22 1255.25,1382.15 1259.05,1382.15 1259.05,1382.09 1262.84,1382.09 1262.84,1382.03 1266.64,1382.03 1266.64,1381.96 1270.44,1381.96 1270.44,1381.9 1274.24,1381.9 1274.24,1381.84 1278.03,1381.84 1278.03,1381.78 1281.83,1381.78 1281.83,1381.72 1285.63,1381.72 1285.63,1381.66 1289.43,1381.66 1289.43,1381.6 1293.23,1381.6 1293.23,1381.55 1297.02,1381.55 1297.02,1381.49 1300.82,1381.49 1300.82,1381.44 1304.62,1381.44 1304.62,1381.39 1308.42,1381.39 1308.42,1381.33 1312.21,1381.33 1312.21,1381.28 1316.01,1381.28 1316.01,1381.23 1319.81,1381.23 1319.81,1381.19 1323.61,1381.19 1323.61,1381.14 1327.4,1381.14 1327.4,1381.09 1331.2,1381.09 1331.2,1381.05 1335,1381.05 1335,1381 1338.8,1381 1338.8,1380.96 1342.59,1380.96 1342.59,1380.92 1346.39,1380.92 1346.39,1380.88 1350.19,1380.88 1350.19,1380.84 1353.99,1380.84 1353.99,1380.8 1357.78,1380.8 1357.78,1380.77 1361.58,1380.77 1361.58,1380.73 1365.38,1380.73 1365.38,1380.69 1369.18,1380.69 1369.18,1380.66 1372.97,1380.66 1372.97,1380.63 1376.77,1380.63 1376.77,1380.6 1380.57,1380.6 1380.57,1380.56 1384.37,1380.56 1384.37,1380.53 1388.17,1380.53 1388.17,1380.5 1391.96,1380.5 1391.96,1380.48 1395.76,1380.48 1395.76,1380.45 1399.56,1380.45 1399.56,1380.42 1403.36,1380.42 1403.36,1380.4 1407.15,1380.4 1407.15,1380.37 1410.95,1380.37 1410.95,1380.35 1414.75,1380.35 1414.75,1380.32 1418.55,1380.32 1418.55,1380.3 1422.34,1380.3 1422.34,1380.28 1426.14,1380.28 1426.14,1380.26 1429.94,1380.26 1429.94,1380.24 1433.74,1380.24 1433.74,1380.22 1437.53,1380.22 1437.53,1380.2 1441.33,1380.2 1441.33,1380.18 1445.13,1380.18 1445.13,1380.16 1448.93,1380.16 1448.93,1380.15 1452.72,1380.15 1452.72,1380.13 1456.52,1380.13 1456.52,1380.12 1460.32,1380.12 1460.32,1380.1 1464.12,1380.1 1464.12,1380.09 1467.91,1380.09 1467.91,1380.07 1471.71,1380.07 1471.71,1380.06 1475.51,1380.06 1475.51,1380.05 1479.31,1380.05 1479.31,1380.03 1483.11,1380.03 1483.11,1380.02 1486.9,1380.02 1486.9,1380.01 1490.7,1380.01 1490.7,1380 1494.5,1380 1494.5,1379.99 1498.3,1379.99 1498.3,1379.98 1502.09,1379.98 1502.09,1379.97 1505.89,1379.97 1505.89,1379.96 1509.69,1379.96 1509.69,1379.95 1513.49,1379.95 1513.49,1379.94 1517.28,1379.94 1517.28,1379.94 1521.08,1379.94 1521.08,1379.93 1524.88,1379.93 1524.88,1379.92 1528.68,1379.92 1528.68,1379.91 1532.47,1379.91 1532.47,1379.91 1536.27,1379.91 1536.27,1379.9 1540.07,1379.9 1540.07,1379.89 1543.87,1379.89 1543.87,1379.89 1547.66,1379.89 1547.66,1379.88 1551.46,1379.88 1551.46,1379.88 1555.26,1379.88 1555.26,1379.87 1559.06,1379.87 1559.06,1379.87 1562.86,1379.87 1562.86,1379.86 1566.65,1379.86 1566.65,1379.86 1570.45,1379.86 1570.45,1379.85 1574.25,1379.85 1574.25,1379.85 1578.05,1379.85 1578.05,1379.85 1581.84,1379.85 1581.84,1379.84 1585.64,1379.84 1585.64,1379.84 1589.44,1379.84 1589.44,1379.84 1593.24,1379.84 1593.24,1379.83 1597.03,1379.83 1597.03,1379.83 1600.83,1379.83 1600.83,1379.83 1604.63,1379.83 1604.63,1379.83 1608.43,1379.83 1608.43,1379.82 1612.22,1379.82 1612.22,1379.82 1616.02,1379.82 1616.02,1379.82 1619.82,1379.82 1619.82,1379.82 1623.62,1379.82 1623.62,1379.82 1627.41,1379.82 1627.41,1379.81 1631.21,1379.81 1631.21,1379.81 1635.01,1379.81 1635.01,1379.81 1638.81,1379.81 1638.81,1379.81 1642.6,1379.81 1642.6,1379.81 1646.4,1379.81 1646.4,1379.81 1650.2,1379.81 1650.2,1379.81 1654,1379.81 1654,1379.81 1657.8,1379.81 1657.8,1379.81 1661.59,1379.81 1661.59,1379.8 1665.39,1379.8 1665.39,1379.8 1669.19,1379.8 1669.19,1379.8 1672.99,1379.8 1672.99,1379.8 1676.78,1379.8 1676.78,1379.8 1680.58,1379.8 1680.58,1379.8 1684.38,1379.8 1684.38,1379.8 1688.18,1379.8 1688.18,1379.8 1691.97,1379.8 1691.97,1379.8 1695.77,1379.8 1695.77,1379.8 1699.57,1379.8 1699.57,1379.8 1703.37,1379.8 1703.37,1379.8 1707.16,1379.8 1707.16,1379.8 1710.96,1379.8 1710.96,1379.8 1714.76,1379.8 1714.76,1379.8 1718.56,1379.8 1718.56,1379.8 1722.35,1379.8 1722.35,1379.8 1726.15,1379.8 1726.15,1379.8 1729.95,1379.8 1729.95,1379.8 1733.75,1379.8 1733.75,1379.8 1737.54,1379.8 1737.54,1379.8 1741.34,1379.8 1741.34,1379.8 1745.14,1379.8 1745.14,1379.8 1748.94,1379.8 1748.94,1379.8 1752.74,1379.8 1752.74,1379.8 1756.53,1379.8 1756.53,1379.8 1760.33,1379.8 1760.33,1379.8 1764.13,1379.8 1764.13,1379.8 1767.93,1379.8 1767.93,1379.8 1771.72,1379.8 1771.72,1379.8 1775.52,1379.8 1775.52,1379.8 1779.32,1379.8 1779.32,1379.8 1783.12,1379.8 1783.12,1379.8 1786.91,1379.8 1786.91,1379.8 1790.71,1379.8 1790.71,1379.8 1794.51,1379.8 1794.51,1379.8 1798.31,1379.8 1798.31,1379.8 1802.1,1379.8 1802.1,1379.8 1805.9,1379.8 1805.9,1379.8 1809.7,1379.8 1809.7,1379.8 1813.5,1379.8 1813.5,1379.8 1817.29,1379.8 1817.29,1379.8 1821.09,1379.8 1821.09,1379.8 1824.89,1379.8 1824.89,1379.8 1828.69,1379.8 1828.69,1379.8 1832.48,1379.8 1832.48,1379.8 1836.28,1379.8 1836.28,1379.8 1840.08,1379.8 1840.08,1379.8 1843.88,1379.8 1843.88,1379.8 1847.68,1379.8 1847.68,1379.8 1851.47,1379.8 1851.47,1379.8 1855.27,1379.8 1855.27,1379.8 1859.07,1379.8 1859.07,1379.8 1862.87,1379.8 1862.87,1379.8 1866.66,1379.8 1866.66,1379.81 1870.46,1379.81 1870.46,1379.81 1874.26,1379.81 1874.26,1379.81 1878.06,1379.81 1878.06,1379.81 1881.85,1379.81 1881.85,1379.81 1885.65,1379.81 1885.65,1379.81 1889.45,1379.81 1889.45,1379.81 1893.25,1379.81 1893.25,1379.81 1897.04,1379.81 1897.04,1379.81 1900.84,1379.81 1900.84,1379.81 1904.64,1379.81 1904.64,1379.81 1908.44,1379.81 1908.44,1379.81 1912.23,1379.81 1912.23,1379.81 1916.03,1379.81 1916.03,1379.81 1919.83,1379.81 1919.83,1379.81 1923.63,1379.81 1923.63,1379.81 1927.42,1379.81 1927.42,1379.81 1931.22,1379.81 1931.22,1379.81 1935.02,1379.81 1935.02,1379.81 1938.82,1379.81 1938.82,1379.81 1942.62,1379.81 1942.62,1379.81 1946.41,1379.81 1946.41,1379.81 1950.21,1379.81 1950.21,1379.81 1954.01,1379.81 1954.01,1379.81 1957.81,1379.81 1957.81,1379.81 1961.6,1379.81 1961.6,1379.81 1965.4,1379.81 1965.4,1379.81 1969.2,1379.81 1969.2,1379.81 1973,1379.81 1973,1379.81 1976.79,1379.81 1976.79,1379.81 1980.59,1379.81 1980.59,1379.81 1984.39,1379.81 1984.39,1379.81 1988.19,1379.81 1988.19,1379.81 1991.98,1379.81 1991.98,1379.81 1995.78,1379.81 1995.78,1379.81 1999.58,1379.81 1999.58,1379.81 2003.38,1379.81 2003.38,1379.81 2007.17,1379.81 2007.17,1379.81 2010.97,1379.81 2010.97,1379.81 2014.77,1379.81 2014.77,1379.81 2018.57,1379.81 2018.57,1379.81 2022.36,1379.81 2022.36,1379.81 2026.16,1379.81 2026.16,1379.81 2029.96,1379.81 2029.96,1379.81 2033.76,1379.81 2033.76,1379.81 2037.56,1379.81 2037.56,1379.81 2041.35,1379.81 2041.35,1379.81 2045.15,1379.81 2045.15,1379.81 2048.95,1379.81 2048.95,1379.81 2052.75,1379.81 2052.75,1379.81 2056.54,1379.81 2056.54,1379.81 2060.34,1379.81 2060.34,1379.81 2064.14,1379.81 2064.14,1379.81 2067.94,1379.81 2067.94,1379.81 2071.73,1379.81 2071.73,1379.81 2075.53,1379.81 2075.53,1379.81 2079.33,1379.81 2079.33,1379.81 2083.13,1379.81 2083.13,1379.81 2086.92,1379.81 2086.92,1379.81 2090.72,1379.81 2090.72,1379.81 2094.52,1379.81 2094.52,1379.81 2098.32,1379.81 2098.32,1379.81 2102.11,1379.81 2102.11,1379.81 2105.91,1379.81 2105.91,1379.81 2109.71,1379.81 2109.71,1379.81 2113.51,1379.81 2113.51,1379.81 2117.3,1379.81 2117.3,1379.81 2121.1,1379.81 2121.1,1379.81 2124.9,1379.81 2124.9,1379.81 2128.7,1379.81 2128.7,1379.81 2132.5,1379.81 2132.5,1379.81 2136.29,1379.81 2136.29,1379.81 2140.09,1379.81 2140.09,1379.81 2143.89,1379.81 2143.89,1379.81 2147.69,1379.81 2147.69,1379.81 2151.48,1379.81 2151.48,1379.81 2155.28,1379.81 2155.28,1379.81 2159.08,1379.81 2159.08,1379.81 2162.88,1379.81 2162.88,1379.81 2166.67,1379.81 2166.67,1379.81 2170.47,1379.81 2170.47,1379.81 2174.27,1379.81 2174.27,1379.81 2178.07,1379.81 2178.07,1379.81 2181.86,1379.81 2181.86,1379.81 2185.66,1379.81 2185.66,1379.81 2189.46,1379.81 2189.46,1379.81 2193.26,1379.81 2193.26,1379.81 2197.05,1379.81 2197.05,1379.81 2200.85,1379.81 2200.85,1379.81 2204.65,1379.81 2204.65,1379.81 2208.45,1379.81 2208.45,1379.81 2212.24,1379.81 2212.24,1379.81 2216.04,1379.81 2216.04,1379.81 2219.84,1379.81 2219.84,1379.81 2223.64,1379.81 2223.64,1379.81 2227.44,1379.81 2227.44,1379.81 2231.23,1379.81 2231.23,1379.81 2235.03,1379.81 2235.03,1379.81 2238.83,1379.81 2238.83,1379.81 2242.63,1379.81 2242.63,1379.81 2246.42,1379.81 2246.42,1379.81 2250.22,1379.81 2250.22,1379.81 2254.02,1379.81 2254.02,1379.81 2257.82,1379.81 2257.82,1379.81 2261.61,1379.81 2261.61,1379.81 2265.41,1379.81 2265.41,1379.81 2269.21,1379.81 2269.21,1379.81 2273.01,1379.81 2273.01,1379.81 2276.8,1379.81 2276.8,1379.81 2280.6,1379.81 2280.6,1379.81 2284.4,1379.81 2284.4,1379.81 2288.2,1379.81 2288.2,1379.81 2291.99,1379.81 2291.99,1379.81 2295.79,1379.81 2295.79,1379.81 "/>
</svg>
