<?xml version="1.0" encoding="utf-8"?>
<svg xmlns="http://www.w3.org/2000/svg" xmlns:xlink="http://www.w3.org/1999/xlink" width="600" height="400" viewBox="0 0 2400 1600">
<defs>
  <clipPath id="clip800">
    <rect x="0" y="0" width="2400" height="1600"/>
  </clipPath>
</defs>
<path clip-path="url(#clip800)" d="M0 1600 L2400 1600 L2400 8.88178e-14 L0 8.88178e-14  Z" fill="#ffffff" fill-rule="evenodd" fill-opacity="1"/>
<defs>
  <clipPath id="clip801">
    <rect x="480" y="0" width="1681" height="1600"/>
  </clipPath>
</defs>
<path clip-path="url(#clip800)" d="M250.028 1423.18 L2352.76 1423.18 L2352.76 47.2441 L250.028 47.2441  Z" fill="#ffffff" fill-rule="evenodd" fill-opacity="1"/>
<defs>
  <clipPath id="clip802">
    <rect x="250" y="47" width="2104" height="1377"/>
  </clipPath>
</defs>
<polyline clip-path="url(#clip802)" style="stroke:#000000; stroke-linecap:round; stroke-linejoin:round; stroke-width:2; stroke-opacity:0.1; fill:none" points="250.028,1423.18 250.028,47.2441 "/>
<polyline clip-path="url(#clip802)" style="stroke:#000000; stroke-linecap:round; stroke-linejoin:round; stroke-width:2; stroke-opacity:0.1; fill:none" points="670.574,1423.18 670.574,47.2441 "/>
<polyline clip-path="url(#clip802)" style="stroke:#000000; stroke-linecap:round; stroke-linejoin:round; stroke-width:2; stroke-opacity:0.1; fill:none" points="1091.12,1423.18 1091.12,47.2441 "/>
<polyline clip-path="url(#clip802)" style="stroke:#000000; stroke-linecap:round; stroke-linejoin:round; stroke-width:2; stroke-opacity:0.1; fill:none" points="1511.66,1423.18 1511.66,47.2441 "/>
<polyline clip-path="url(#clip802)" style="stroke:#000000; stroke-linecap:round; stroke-linejoin:round; stroke-width:2; stroke-opacity:0.1; fill:none" points="1932.21,1423.18 1932.21,47.2441 "/>
<polyline clip-path="url(#clip802)" style="stroke:#000000; stroke-linecap:round; stroke-linejoin:round; stroke-width:2; stroke-opacity:0.1; fill:none" points="2352.76,1423.18 2352.76,47.2441 "/>
<polyline clip-path="url(#clip800)" style="stroke:#000000; stroke-linecap:round; stroke-linejoin:round; stroke-width:4; stroke-opacity:1; fill:none" points="250.028,1423.18 2352.76,1423.18 "/>
<polyline clip-path="url(#clip800)" style="stroke:#000000; stroke-linecap:round; stroke-linejoin:round; stroke-width:4; stroke-opacity:1; fill:none" points="250.028,1423.18 250.028,1404.28 "/>
<polyline clip-path="url(#clip800)" style="stroke:#000000; stroke-linecap:round; stroke-linejoin:round; stroke-width:4; stroke-opacity:1; fill:none" points="670.574,1423.18 670.574,1404.28 "/>
<polyline clip-path="url(#clip800)" style="stroke:#000000; stroke-linecap:round; stroke-linejoin:round; stroke-width:4; stroke-opacity:1; fill:none" points="1091.12,1423.18 1091.12,1404.28 "/>
<polyline clip-path="url(#clip800)" style="stroke:#000000; stroke-linecap:round; stroke-linejoin:round; stroke-width:4; stroke-opacity:1; fill:none" points="1511.66,1423.18 1511.66,1404.28 "/>
<polyline clip-path="url(#clip800)" style="stroke:#000000; stroke-linecap:round; stroke-linejoin:round; stroke-width:4; stroke-opacity:1; fill:none" points="1932.21,1423.18 1932.21,1404.28 "/>
<polyline clip-path="url(#clip800)" style="stroke:#000000; stroke-linecap:round; stroke-linejoin:round; stroke-width:4; stroke-opacity:1; fill:none" points="2352.76,1423.18 2352.76,1404.28 "/>
<path clip-path="url(#clip800)" d="M250.028 1454.1 Q246.417 1454.1 244.588 1457.66 Q242.783 1461.2 242.783 1468.33 Q242.783 1475.44 244.588 1479.01 Q246.417 1482.55 250.028 1482.55 Q253.662 1482.55 255.468 1479.01 Q257.297 1475.44 257.297 1468.33 Q257.297 1461.2 255.468 1457.66 Q253.662 1454.1 250.028 1454.1 M250.028 1450.39 Q255.838 1450.39 258.894 1455 Q261.973 1459.58 261.973 1468.33 Q261.973 1477.06 258.894 1481.67 Q255.838 1486.25 250.028 1486.25 Q244.218 1486.25 241.139 1481.67 Q238.084 1477.06 238.084 1468.33 Q238.084 1459.58 241.139 1455 Q244.218 1450.39 250.028 1450.39 Z" fill="#000000" fill-rule="nonzero" fill-opacity="1" /><path clip-path="url(#clip800)" d="M660.956 1481.64 L668.595 1481.64 L668.595 1455.28 L660.284 1456.95 L660.284 1452.69 L668.548 1451.02 L673.224 1451.02 L673.224 1481.64 L680.863 1481.64 L680.863 1485.58 L660.956 1485.58 L660.956 1481.64 Z" fill="#000000" fill-rule="nonzero" fill-opacity="1" /><path clip-path="url(#clip800)" d="M1085.77 1481.64 L1102.09 1481.64 L1102.09 1485.58 L1080.15 1485.58 L1080.15 1481.64 Q1082.81 1478.89 1087.39 1474.26 Q1092 1469.61 1093.18 1468.27 Q1095.42 1465.74 1096.3 1464.01 Q1097.21 1462.25 1097.21 1460.56 Q1097.21 1457.8 1095.26 1456.07 Q1093.34 1454.33 1090.24 1454.33 Q1088.04 1454.33 1085.59 1455.09 Q1083.16 1455.86 1080.38 1457.41 L1080.38 1452.69 Q1083.2 1451.55 1085.66 1450.97 Q1088.11 1450.39 1090.15 1450.39 Q1095.52 1450.39 1098.71 1453.08 Q1101.91 1455.77 1101.91 1460.26 Q1101.91 1462.39 1101.1 1464.31 Q1100.31 1466.2 1098.2 1468.8 Q1097.62 1469.47 1094.52 1472.69 Q1091.42 1475.88 1085.77 1481.64 Z" fill="#000000" fill-rule="nonzero" fill-opacity="1" /><path clip-path="url(#clip800)" d="M1515.91 1466.95 Q1519.27 1467.66 1521.14 1469.93 Q1523.04 1472.2 1523.04 1475.53 Q1523.04 1480.65 1519.52 1483.45 Q1516.01 1486.25 1509.52 1486.25 Q1507.35 1486.25 1505.03 1485.81 Q1502.74 1485.39 1500.29 1484.54 L1500.29 1480.02 Q1502.23 1481.16 1504.55 1481.74 Q1506.86 1482.32 1509.38 1482.32 Q1513.78 1482.32 1516.07 1480.58 Q1518.39 1478.84 1518.39 1475.53 Q1518.39 1472.48 1516.24 1470.77 Q1514.11 1469.03 1510.29 1469.03 L1506.26 1469.03 L1506.26 1465.19 L1510.47 1465.19 Q1513.92 1465.19 1515.75 1463.82 Q1517.58 1462.43 1517.58 1459.84 Q1517.58 1457.18 1515.68 1455.77 Q1513.81 1454.33 1510.29 1454.33 Q1508.37 1454.33 1506.17 1454.75 Q1503.97 1455.16 1501.33 1456.04 L1501.33 1451.88 Q1503.99 1451.14 1506.31 1450.77 Q1508.64 1450.39 1510.7 1450.39 Q1516.03 1450.39 1519.13 1452.83 Q1522.23 1455.23 1522.23 1459.35 Q1522.23 1462.22 1520.59 1464.21 Q1518.94 1466.18 1515.91 1466.95 Z" fill="#000000" fill-rule="nonzero" fill-opacity="1" /><path clip-path="url(#clip800)" d="M1935.22 1455.09 L1923.41 1473.54 L1935.22 1473.54 L1935.22 1455.09 M1933.99 1451.02 L1939.87 1451.02 L1939.87 1473.54 L1944.8 1473.54 L1944.8 1477.43 L1939.87 1477.43 L1939.87 1485.58 L1935.22 1485.58 L1935.22 1477.43 L1919.62 1477.43 L1919.62 1472.92 L1933.99 1451.02 Z" fill="#000000" fill-rule="nonzero" fill-opacity="1" /><path clip-path="url(#clip800)" d="M2343.03 1451.02 L2361.39 1451.02 L2361.39 1454.96 L2347.32 1454.96 L2347.32 1463.43 Q2348.33 1463.08 2349.35 1462.92 Q2350.37 1462.73 2351.39 1462.73 Q2357.18 1462.73 2360.56 1465.9 Q2363.94 1469.08 2363.94 1474.49 Q2363.94 1480.07 2360.46 1483.17 Q2356.99 1486.25 2350.67 1486.25 Q2348.5 1486.25 2346.23 1485.88 Q2343.98 1485.51 2341.58 1484.77 L2341.58 1480.07 Q2343.66 1481.2 2345.88 1481.76 Q2348.1 1482.32 2350.58 1482.32 Q2354.58 1482.32 2356.92 1480.21 Q2359.26 1478.1 2359.26 1474.49 Q2359.26 1470.88 2356.92 1468.77 Q2354.58 1466.67 2350.58 1466.67 Q2348.71 1466.67 2346.83 1467.08 Q2344.98 1467.5 2343.03 1468.38 L2343.03 1451.02 Z" fill="#000000" fill-rule="nonzero" fill-opacity="1" /><path clip-path="url(#clip800)" d="M1300.45 1522.27 L1300.45 1532.4 L1312.52 1532.4 L1312.52 1536.95 L1300.45 1536.95 L1300.45 1556.3 Q1300.45 1560.66 1301.63 1561.9 Q1302.84 1563.14 1306.5 1563.14 L1312.52 1563.14 L1312.52 1568.04 L1306.5 1568.04 Q1299.72 1568.04 1297.14 1565.53 Q1294.56 1562.98 1294.56 1556.3 L1294.56 1536.95 L1290.27 1536.95 L1290.27 1532.4 L1294.56 1532.4 L1294.56 1522.27 L1300.45 1522.27 Z" fill="#000000" fill-rule="nonzero" fill-opacity="1" /><polyline clip-path="url(#clip802)" style="stroke:#000000; stroke-linecap:round; stroke-linejoin:round; stroke-width:2; stroke-opacity:0.1; fill:none" points="250.028,1379.81 2352.76,1379.81 "/>
<polyline clip-path="url(#clip802)" style="stroke:#000000; stroke-linecap:round; stroke-linejoin:round; stroke-width:2; stroke-opacity:0.1; fill:none" points="250.028,1110.28 2352.76,1110.28 "/>
<polyline clip-path="url(#clip802)" style="stroke:#000000; stroke-linecap:round; stroke-linejoin:round; stroke-width:2; stroke-opacity:0.1; fill:none" points="250.028,840.755 2352.76,840.755 "/>
<polyline clip-path="url(#clip802)" style="stroke:#000000; stroke-linecap:round; stroke-linejoin:round; stroke-width:2; stroke-opacity:0.1; fill:none" points="250.028,571.226 2352.76,571.226 "/>
<polyline clip-path="url(#clip802)" style="stroke:#000000; stroke-linecap:round; stroke-linejoin:round; stroke-width:2; stroke-opacity:0.1; fill:none" points="250.028,301.697 2352.76,301.697 "/>
<polyline clip-path="url(#clip800)" style="stroke:#000000; stroke-linecap:round; stroke-linejoin:round; stroke-width:4; stroke-opacity:1; fill:none" points="250.028,1423.18 250.028,47.2441 "/>
<polyline clip-path="url(#clip800)" style="stroke:#000000; stroke-linecap:round; stroke-linejoin:round; stroke-width:4; stroke-opacity:1; fill:none" points="250.028,1379.81 268.926,1379.81 "/>
<polyline clip-path="url(#clip800)" style="stroke:#000000; stroke-linecap:round; stroke-linejoin:round; stroke-width:4; stroke-opacity:1; fill:none" points="250.028,1110.28 268.926,1110.28 "/>
<polyline clip-path="url(#clip800)" style="stroke:#000000; stroke-linecap:round; stroke-linejoin:round; stroke-width:4; stroke-opacity:1; fill:none" points="250.028,840.755 268.926,840.755 "/>
<polyline clip-path="url(#clip800)" style="stroke:#000000; stroke-linecap:round; stroke-linejoin:round; stroke-width:4; stroke-opacity:1; fill:none" points="250.028,571.226 268.926,571.226 "/>
<polyline clip-path="url(#clip800)" style="stroke:#000000; stroke-linecap:round; stroke-linejoin:round; stroke-width:4; stroke-opacity:1; fill:none" points="250.028,301.697 268.926,301.697 "/>
<path clip-path="url(#clip800)" d="M126.691 1365.61 Q123.08 1365.61 121.251 1369.18 Q119.445 1372.72 119.445 1379.85 Q119.445 1386.95 121.251 1390.52 Q123.08 1394.06 126.691 1394.06 Q130.325 1394.06 132.13 1390.52 Q133.959 1386.95 133.959 1379.85 Q133.959 1372.72 132.13 1369.18 Q130.325 1365.61 126.691 1365.61 M126.691 1361.91 Q132.501 1361.91 135.556 1366.51 Q138.635 1371.1 138.635 1379.85 Q138.635 1388.57 135.556 1393.18 Q132.501 1397.76 126.691 1397.76 Q120.88 1397.76 117.802 1393.18 Q114.746 1388.57 114.746 1379.85 Q114.746 1371.1 117.802 1366.51 Q120.88 1361.91 126.691 1361.91 Z" fill="#000000" fill-rule="nonzero" fill-opacity="1" /><path clip-path="url(#clip800)" d="M146.853 1391.21 L151.737 1391.21 L151.737 1397.09 L146.853 1397.09 L146.853 1391.21 Z" fill="#000000" fill-rule="nonzero" fill-opacity="1" /><path clip-path="url(#clip800)" d="M171.922 1365.61 Q168.311 1365.61 166.482 1369.18 Q164.677 1372.72 164.677 1379.85 Q164.677 1386.95 166.482 1390.52 Q168.311 1394.06 171.922 1394.06 Q175.556 1394.06 177.362 1390.52 Q179.19 1386.95 179.19 1379.85 Q179.19 1372.72 177.362 1369.18 Q175.556 1365.61 171.922 1365.61 M171.922 1361.91 Q177.732 1361.91 180.788 1366.51 Q183.866 1371.1 183.866 1379.85 Q183.866 1388.57 180.788 1393.18 Q177.732 1397.76 171.922 1397.76 Q166.112 1397.76 163.033 1393.18 Q159.978 1388.57 159.978 1379.85 Q159.978 1371.1 163.033 1366.51 Q166.112 1361.91 171.922 1361.91 Z" fill="#000000" fill-rule="nonzero" fill-opacity="1" /><path clip-path="url(#clip800)" d="M202.084 1365.61 Q198.473 1365.61 196.644 1369.18 Q194.838 1372.72 194.838 1379.85 Q194.838 1386.95 196.644 1390.52 Q198.473 1394.06 202.084 1394.06 Q205.718 1394.06 207.524 1390.52 Q209.352 1386.95 209.352 1379.85 Q209.352 1372.72 207.524 1369.18 Q205.718 1365.61 202.084 1365.61 M202.084 1361.91 Q207.894 1361.91 210.949 1366.51 Q214.028 1371.1 214.028 1379.85 Q214.028 1388.57 210.949 1393.18 Q207.894 1397.76 202.084 1397.76 Q196.274 1397.76 193.195 1393.18 Q190.139 1388.57 190.139 1379.85 Q190.139 1371.1 193.195 1366.51 Q196.274 1361.91 202.084 1361.91 Z" fill="#000000" fill-rule="nonzero" fill-opacity="1" /><path clip-path="url(#clip800)" d="M128.288 1096.08 Q124.677 1096.08 122.848 1099.65 Q121.043 1103.19 121.043 1110.32 Q121.043 1117.42 122.848 1120.99 Q124.677 1124.53 128.288 1124.53 Q131.922 1124.53 133.728 1120.99 Q135.556 1117.42 135.556 1110.32 Q135.556 1103.19 133.728 1099.65 Q131.922 1096.08 128.288 1096.08 M128.288 1092.38 Q134.098 1092.38 137.154 1096.99 Q140.232 1101.57 140.232 1110.32 Q140.232 1119.05 137.154 1123.65 Q134.098 1128.24 128.288 1128.24 Q122.478 1128.24 119.399 1123.65 Q116.343 1119.05 116.343 1110.32 Q116.343 1101.57 119.399 1096.99 Q122.478 1092.38 128.288 1092.38 Z" fill="#000000" fill-rule="nonzero" fill-opacity="1" /><path clip-path="url(#clip800)" d="M148.45 1121.68 L153.334 1121.68 L153.334 1127.56 L148.45 1127.56 L148.45 1121.68 Z" fill="#000000" fill-rule="nonzero" fill-opacity="1" /><path clip-path="url(#clip800)" d="M173.519 1096.08 Q169.908 1096.08 168.079 1099.65 Q166.274 1103.19 166.274 1110.32 Q166.274 1117.42 168.079 1120.99 Q169.908 1124.53 173.519 1124.53 Q177.153 1124.53 178.959 1120.99 Q180.788 1117.42 180.788 1110.32 Q180.788 1103.19 178.959 1099.65 Q177.153 1096.08 173.519 1096.08 M173.519 1092.38 Q179.329 1092.38 182.385 1096.99 Q185.463 1101.57 185.463 1110.32 Q185.463 1119.05 182.385 1123.65 Q179.329 1128.24 173.519 1128.24 Q167.709 1128.24 164.63 1123.65 Q161.575 1119.05 161.575 1110.32 Q161.575 1101.57 164.63 1096.99 Q167.709 1092.38 173.519 1092.38 Z" fill="#000000" fill-rule="nonzero" fill-opacity="1" /><path clip-path="url(#clip800)" d="M197.709 1123.63 L214.028 1123.63 L214.028 1127.56 L192.084 1127.56 L192.084 1123.63 Q194.746 1120.87 199.329 1116.24 Q203.936 1111.59 205.116 1110.25 Q207.362 1107.73 208.241 1105.99 Q209.144 1104.23 209.144 1102.54 Q209.144 1099.79 207.199 1098.05 Q205.278 1096.31 202.176 1096.31 Q199.977 1096.31 197.524 1097.08 Q195.093 1097.84 192.315 1099.39 L192.315 1094.67 Q195.139 1093.54 197.593 1092.96 Q200.047 1092.38 202.084 1092.38 Q207.454 1092.38 210.649 1095.06 Q213.843 1097.75 213.843 1102.24 Q213.843 1104.37 213.033 1106.29 Q212.246 1108.19 210.139 1110.78 Q209.561 1111.45 206.459 1114.67 Q203.357 1117.86 197.709 1123.63 Z" fill="#000000" fill-rule="nonzero" fill-opacity="1" /><path clip-path="url(#clip800)" d="M126.205 826.554 Q122.593 826.554 120.765 830.118 Q118.959 833.66 118.959 840.79 Q118.959 847.896 120.765 851.461 Q122.593 855.002 126.205 855.002 Q129.839 855.002 131.644 851.461 Q133.473 847.896 133.473 840.79 Q133.473 833.66 131.644 830.118 Q129.839 826.554 126.205 826.554 M126.205 822.85 Q132.015 822.85 135.07 827.456 Q138.149 832.04 138.149 840.79 Q138.149 849.516 135.07 854.123 Q132.015 858.706 126.205 858.706 Q120.394 858.706 117.316 854.123 Q114.26 849.516 114.26 840.79 Q114.26 832.04 117.316 827.456 Q120.394 822.85 126.205 822.85 Z" fill="#000000" fill-rule="nonzero" fill-opacity="1" /><path clip-path="url(#clip800)" d="M146.366 852.155 L151.251 852.155 L151.251 858.035 L146.366 858.035 L146.366 852.155 Z" fill="#000000" fill-rule="nonzero" fill-opacity="1" /><path clip-path="url(#clip800)" d="M171.436 826.554 Q167.825 826.554 165.996 830.118 Q164.19 833.66 164.19 840.79 Q164.19 847.896 165.996 851.461 Q167.825 855.002 171.436 855.002 Q175.07 855.002 176.876 851.461 Q178.704 847.896 178.704 840.79 Q178.704 833.66 176.876 830.118 Q175.07 826.554 171.436 826.554 M171.436 822.85 Q177.246 822.85 180.301 827.456 Q183.38 832.04 183.38 840.79 Q183.38 849.516 180.301 854.123 Q177.246 858.706 171.436 858.706 Q165.626 858.706 162.547 854.123 Q159.491 849.516 159.491 840.79 Q159.491 832.04 162.547 827.456 Q165.626 822.85 171.436 822.85 Z" fill="#000000" fill-rule="nonzero" fill-opacity="1" /><path clip-path="url(#clip800)" d="M204.445 827.549 L192.639 845.998 L204.445 845.998 L204.445 827.549 M203.218 823.475 L209.098 823.475 L209.098 845.998 L214.028 845.998 L214.028 849.887 L209.098 849.887 L209.098 858.035 L204.445 858.035 L204.445 849.887 L188.843 849.887 L188.843 845.373 L203.218 823.475 Z" fill="#000000" fill-rule="nonzero" fill-opacity="1" /><path clip-path="url(#clip800)" d="M126.529 557.025 Q122.918 557.025 121.089 560.589 Q119.283 564.131 119.283 571.261 Q119.283 578.367 121.089 581.932 Q122.918 585.474 126.529 585.474 Q130.163 585.474 131.968 581.932 Q133.797 578.367 133.797 571.261 Q133.797 564.131 131.968 560.589 Q130.163 557.025 126.529 557.025 M126.529 553.321 Q132.339 553.321 135.394 557.927 Q138.473 562.511 138.473 571.261 Q138.473 579.987 135.394 584.594 Q132.339 589.177 126.529 589.177 Q120.718 589.177 117.64 584.594 Q114.584 579.987 114.584 571.261 Q114.584 562.511 117.64 557.927 Q120.718 553.321 126.529 553.321 Z" fill="#000000" fill-rule="nonzero" fill-opacity="1" /><path clip-path="url(#clip800)" d="M146.691 582.626 L151.575 582.626 L151.575 588.506 L146.691 588.506 L146.691 582.626 Z" fill="#000000" fill-rule="nonzero" fill-opacity="1" /><path clip-path="url(#clip800)" d="M171.76 557.025 Q168.149 557.025 166.32 560.589 Q164.515 564.131 164.515 571.261 Q164.515 578.367 166.32 581.932 Q168.149 585.474 171.76 585.474 Q175.394 585.474 177.2 581.932 Q179.028 578.367 179.028 571.261 Q179.028 564.131 177.2 560.589 Q175.394 557.025 171.76 557.025 M171.76 553.321 Q177.57 553.321 180.626 557.927 Q183.704 562.511 183.704 571.261 Q183.704 579.987 180.626 584.594 Q177.57 589.177 171.76 589.177 Q165.95 589.177 162.871 584.594 Q159.815 579.987 159.815 571.261 Q159.815 562.511 162.871 557.927 Q165.95 553.321 171.76 553.321 Z" fill="#000000" fill-rule="nonzero" fill-opacity="1" /><path clip-path="url(#clip800)" d="M202.5 569.363 Q199.352 569.363 197.5 571.515 Q195.672 573.668 195.672 577.418 Q195.672 581.145 197.5 583.321 Q199.352 585.474 202.5 585.474 Q205.649 585.474 207.477 583.321 Q209.329 581.145 209.329 577.418 Q209.329 573.668 207.477 571.515 Q205.649 569.363 202.5 569.363 M211.783 554.71 L211.783 558.969 Q210.024 558.136 208.218 557.696 Q206.436 557.256 204.676 557.256 Q200.047 557.256 197.593 560.381 Q195.163 563.506 194.815 569.825 Q196.181 567.812 198.241 566.747 Q200.301 565.659 202.778 565.659 Q207.987 565.659 210.996 568.83 Q214.028 571.978 214.028 577.418 Q214.028 582.742 210.88 585.96 Q207.732 589.177 202.5 589.177 Q196.505 589.177 193.334 584.594 Q190.163 579.987 190.163 571.261 Q190.163 563.066 194.051 558.205 Q197.94 553.321 204.491 553.321 Q206.25 553.321 208.033 553.668 Q209.838 554.015 211.783 554.71 Z" fill="#000000" fill-rule="nonzero" fill-opacity="1" /><path clip-path="url(#clip800)" d="M126.783 287.496 Q123.172 287.496 121.343 291.06 Q119.538 294.602 119.538 301.732 Q119.538 308.838 121.343 312.403 Q123.172 315.945 126.783 315.945 Q130.417 315.945 132.223 312.403 Q134.052 308.838 134.052 301.732 Q134.052 294.602 132.223 291.06 Q130.417 287.496 126.783 287.496 M126.783 283.792 Q132.593 283.792 135.649 288.398 Q138.728 292.982 138.728 301.732 Q138.728 310.459 135.649 315.065 Q132.593 319.648 126.783 319.648 Q120.973 319.648 117.894 315.065 Q114.839 310.459 114.839 301.732 Q114.839 292.982 117.894 288.398 Q120.973 283.792 126.783 283.792 Z" fill="#000000" fill-rule="nonzero" fill-opacity="1" /><path clip-path="url(#clip800)" d="M146.945 313.097 L151.829 313.097 L151.829 318.977 L146.945 318.977 L146.945 313.097 Z" fill="#000000" fill-rule="nonzero" fill-opacity="1" /><path clip-path="url(#clip800)" d="M172.014 287.496 Q168.403 287.496 166.575 291.06 Q164.769 294.602 164.769 301.732 Q164.769 308.838 166.575 312.403 Q168.403 315.945 172.014 315.945 Q175.649 315.945 177.454 312.403 Q179.283 308.838 179.283 301.732 Q179.283 294.602 177.454 291.06 Q175.649 287.496 172.014 287.496 M172.014 283.792 Q177.825 283.792 180.88 288.398 Q183.959 292.982 183.959 301.732 Q183.959 310.459 180.88 315.065 Q177.825 319.648 172.014 319.648 Q166.204 319.648 163.126 315.065 Q160.07 310.459 160.07 301.732 Q160.07 292.982 163.126 288.398 Q166.204 283.792 172.014 283.792 Z" fill="#000000" fill-rule="nonzero" fill-opacity="1" /><path clip-path="url(#clip800)" d="M202.176 302.565 Q198.843 302.565 196.922 304.347 Q195.024 306.13 195.024 309.255 Q195.024 312.38 196.922 314.162 Q198.843 315.945 202.176 315.945 Q205.51 315.945 207.431 314.162 Q209.352 312.357 209.352 309.255 Q209.352 306.13 207.431 304.347 Q205.533 302.565 202.176 302.565 M197.5 300.574 Q194.491 299.834 192.801 297.773 Q191.135 295.713 191.135 292.75 Q191.135 288.607 194.075 286.199 Q197.037 283.792 202.176 283.792 Q207.338 283.792 210.278 286.199 Q213.218 288.607 213.218 292.75 Q213.218 295.713 211.528 297.773 Q209.861 299.834 206.875 300.574 Q210.255 301.361 212.13 303.653 Q214.028 305.945 214.028 309.255 Q214.028 314.278 210.949 316.963 Q207.894 319.648 202.176 319.648 Q196.459 319.648 193.38 316.963 Q190.325 314.278 190.325 309.255 Q190.325 305.945 192.223 303.653 Q194.121 301.361 197.5 300.574 M195.787 293.19 Q195.787 295.875 197.454 297.38 Q199.144 298.885 202.176 298.885 Q205.186 298.885 206.875 297.38 Q208.588 295.875 208.588 293.19 Q208.588 290.505 206.875 289 Q205.186 287.496 202.176 287.496 Q199.144 287.496 197.454 289 Q195.787 290.505 195.787 293.19 Z" fill="#000000" fill-rule="nonzero" fill-opacity="1" /><path clip-path="url(#clip800)" d="M49.9359 796.466 L28.3562 796.466 L28.3562 790.61 L49.7131 790.61 Q54.7739 790.61 57.3202 788.636 Q59.8346 786.663 59.8346 782.716 Q59.8346 777.974 56.8109 775.236 Q53.7872 772.467 48.5673 772.467 L28.3562 772.467 L28.3562 766.611 L64.0042 766.611 L64.0042 772.467 L58.5296 772.467 Q61.7762 774.6 63.3676 777.433 Q64.9272 780.233 64.9272 783.957 Q64.9272 790.1 61.1078 793.283 Q57.2883 796.466 49.9359 796.466 M27.4968 781.729 L27.4968 781.729 Z" fill="#000000" fill-rule="nonzero" fill-opacity="1" /><path clip-path="url(#clip800)" d="M14.479 755.089 L14.479 741.594 L19.0304 741.594 L19.0304 749.232 L68.0464 749.232 L68.0464 741.594 L72.5979 741.594 L72.5979 755.089 L14.479 755.089 Z" fill="#000000" fill-rule="nonzero" fill-opacity="1" /><path clip-path="url(#clip800)" d="M58.5933 727.175 L58.5933 716.672 L22.3406 716.672 L24.6323 728.098 L18.7758 728.098 L16.4842 716.736 L16.4842 710.306 L58.5933 710.306 L58.5933 699.803 L64.0042 699.803 L64.0042 727.175 L58.5933 727.175 Z" fill="#000000" fill-rule="nonzero" fill-opacity="1" /><path clip-path="url(#clip800)" d="M14.479 673.958 L72.5979 673.958 L72.5979 687.453 L68.0464 687.453 L68.0464 679.846 L19.0304 679.846 L19.0304 687.453 L14.479 687.453 L14.479 673.958 Z" fill="#000000" fill-rule="nonzero" fill-opacity="1" /><polyline clip-path="url(#clip802)" style="stroke:#009af9; stroke-linecap:round; stroke-linejoin:round; stroke-width:4; stroke-opacity:1; fill:none" points="250.028,1379.81 252.133,1378.14 254.238,1373.22 256.343,1365.14 258.447,1354.04 260.552,1340.01 262.657,1323.16 264.762,1303.59 266.867,1281.42 268.972,1256.72 271.076,1229.61 273.181,1200.17 275.286,1168.5 277.391,1134.69 279.496,1098.82 281.601,1060.98 283.705,1021.25 285.81,979.71 287.915,936.442 290.02,891.579 292.125,846.172 294.23,801.623 296.334,758.858 298.439,718.311 300.544,679.933 302.649,643.186 304.754,607.619 306.859,573.574 308.963,541.018 311.068,509.913 313.173,480.222 315.278,451.906 317.383,424.931 319.488,399.26 321.592,374.86 323.697,351.696 325.802,329.735 327.907,308.943 330.012,289.29 332.117,270.743 334.221,253.271 336.326,236.845 338.431,221.434 340.536,207.01 342.641,193.544 344.746,181.008 346.85,169.377 348.955,158.622 351.06,148.719 353.165,139.641 355.27,131.364 357.375,123.864 359.479,117.116 361.584,111.099 363.689,105.788 365.794,101.163 367.899,97.1998 370.004,93.8787 372.108,91.1785 374.213,89.0787 376.318,87.5595 378.423,86.6015 380.528,86.1857 382.633,86.2936 384.737,86.9072 386.842,88.0085 388.947,89.58 391.052,91.6053 393.157,94.0681 395.262,96.9526 397.366,100.243 399.471,103.925 401.576,107.983 403.681,112.402 405.786,117.169 407.891,122.269 409.995,127.689 412.1,133.415 414.205,139.436 416.31,145.738 418.415,152.308 420.52,159.136 422.624,166.21 424.729,173.517 426.834,181.048 428.939,188.792 431.044,196.738 433.149,204.875 435.253,213.195 437.358,221.688 439.463,230.345 441.568,239.156 443.673,248.114 445.778,257.209 447.882,266.434 449.987,275.779 452.092,285.238 454.197,294.803 456.302,304.466 458.407,314.219 460.511,324.057 462.616,333.972 464.721,343.957 466.826,354.007 468.931,364.114 471.036,374.273 473.14,384.478 475.245,394.724 477.35,405.005 479.455,415.314 481.56,425.649 483.665,436.003 485.769,446.372 487.874,456.752 489.979,467.138 492.084,477.526 494.189,487.913 496.294,498.293 498.398,508.664 500.503,519.021 502.608,529.361 504.713,539.68 506.818,549.975 508.923,560.243 511.027,570.48 513.132,580.683 515.237,590.85 517.342,600.977 519.447,611.063 521.552,621.104 523.656,631.097 525.761,641.042 527.866,650.934 529.971,660.773 532.076,670.556 534.181,680.281 536.285,689.946 538.39,699.55 540.495,709.091 542.6,718.567 544.705,727.979 546.81,737.323 548.914,746.598 551.019,755.804 553.124,764.939 555.229,774.003 557.334,782.992 559.439,791.908 561.543,800.749 563.648,809.513 565.753,818.201 567.858,826.81 569.963,835.341 572.068,843.793 574.172,852.165 576.277,860.457 578.382,868.667 580.487,876.796 582.592,884.843 584.697,892.807 586.801,900.689 588.906,908.488 591.011,916.203 593.116,923.835 595.221,931.384 597.326,938.849 599.43,946.231 601.535,953.529 603.64,960.745 605.745,967.877 607.85,974.926 609.955,981.892 612.059,988.775 614.164,995.575 616.269,1002.29 618.374,1008.93 620.479,1015.48 622.584,1021.95 624.688,1028.34 626.793,1034.65 628.898,1040.88 631.003,1047.03 633.108,1053.09 635.213,1059.08 637.317,1064.98 639.422,1070.81 641.527,1076.56 643.632,1082.23 645.737,1087.82 647.842,1093.33 649.946,1098.77 652.051,1104.12 654.156,1109.41 656.261,1114.61 658.366,1119.75 660.47,1124.8 662.575,1129.79 664.68,1134.7 666.785,1139.54 668.89,1144.3 670.995,1149 673.099,1153.62 675.204,1158.18 677.309,1162.66 679.414,1167.08 681.519,1171.43 683.624,1175.71 685.728,1179.93 687.833,1184.07 689.938,1188.16 692.043,1192.17 694.148,1196.13 696.253,1200.02 698.357,1203.84 700.462,1207.61 702.567,1211.31 704.672,1214.95 706.777,1218.53 708.882,1222.05 710.986,1225.51 713.091,1228.92 715.196,1232.26 717.301,1235.55 719.406,1238.78 721.511,1241.96 723.615,1245.08 725.72,1248.14 727.825,1251.15 729.93,1254.11 732.035,1257.02 734.14,1259.87 736.244,1262.68 738.349,1265.43 740.454,1268.13 742.559,1270.79 744.664,1273.4 746.769,1275.95 748.873,1278.47 750.978,1280.93 753.083,1283.35 755.188,1285.73 757.293,1288.05 759.398,1290.34 761.502,1292.58 763.607,1294.78 765.712,1296.94 767.817,1299.06 769.922,1301.13 772.027,1303.16 774.131,1305.16 776.236,1307.11 778.341,1309.03 780.446,1310.91 782.551,1312.75 784.656,1314.55 786.76,1316.32 788.865,1318.05 790.97,1319.75 793.075,1321.41 795.18,1323.03 797.285,1324.63 799.389,1326.19 801.494,1327.71 803.599,1329.21 805.704,1330.67 807.809,1332.11 809.914,1333.51 812.018,1334.88 814.123,1336.22 816.228,1337.54 818.333,1338.82 820.438,1340.08 822.543,1341.31 824.647,1342.51 826.752,1343.68 828.857,1344.83 830.962,1345.96 833.067,1347.06 835.172,1348.13 837.276,1349.18 839.381,1350.2 841.486,1351.2 843.591,1352.18 845.696,1353.14 847.801,1354.07 849.905,1354.98 852.01,1355.87 854.115,1356.74 856.22,1357.59 858.325,1358.42 860.43,1359.22 862.534,1360.01 864.639,1360.78 866.744,1361.53 868.849,1362.26 870.954,1362.97 873.059,1363.66 875.163,1364.34 877.268,1365 879.373,1365.64 881.478,1366.27 883.583,1366.88 885.688,1367.47 887.792,1368.05 889.897,1368.61 892.002,1369.16 894.107,1369.69 896.212,1370.21 898.317,1370.72 900.421,1371.21 902.526,1371.68 904.631,1372.15 906.736,1372.6 908.841,1373.04 910.946,1373.46 913.05,1373.88 915.155,1374.28 917.26,1374.67 919.365,1375.05 921.47,1375.42 923.575,1375.78 925.679,1376.12 927.784,1376.46 929.889,1376.78 931.994,1377.1 934.099,1377.41 936.204,1377.7 938.308,1377.99 940.413,1378.27 942.518,1378.54 944.623,1378.8 946.728,1379.05 948.833,1379.29 950.937,1379.52 953.042,1379.75 955.147,1379.97 957.252,1380.18 959.357,1380.39 961.462,1380.58 963.566,1380.77 965.671,1380.96 967.776,1381.13 969.881,1381.3 971.986,1381.46 974.091,1381.62 976.195,1381.77 978.3,1381.92 980.405,1382.06 982.51,1382.19 984.615,1382.32 986.72,1382.44 988.824,1382.56 990.929,1382.67 993.034,1382.78 995.139,1382.88 997.244,1382.97 999.349,1383.07 1001.45,1383.16 1003.56,1383.24 1005.66,1383.32 1007.77,1383.4 1009.87,1383.47 1011.98,1383.53 1014.08,1383.6 1016.19,1383.66 1018.29,1383.72 1020.4,1383.77 1022.5,1383.82 1024.61,1383.86 1026.71,1383.91 1028.82,1383.95 1030.92,1383.99 1033.03,1384.02 1035.13,1384.05 1037.24,1384.08 1039.34,1384.11 1041.45,1384.13 1043.55,1384.15 1045.65,1384.17 1047.76,1384.18 1049.86,1384.2 1051.97,1384.21 1054.07,1384.22 1056.18,1384.23 1058.28,1384.23 1060.39,1384.24 1062.49,1384.24 1064.6,1384.24 1066.7,1384.24 1068.81,1384.23 1070.91,1384.23 1073.02,1384.22 1075.12,1384.21 1077.23,1384.2 1079.33,1384.19 1081.44,1384.18 1083.54,1384.17 1085.65,1384.15 1087.75,1384.13 1089.86,1384.12 1091.96,1384.1 1094.07,1384.08 1096.17,1384.06 1098.28,1384.04 1100.38,1384.01 1102.49,1383.99 1104.59,1383.97 1106.7,1383.94 1108.8,1383.92 1110.9,1383.89 1113.01,1383.86 1115.11,1383.83 1117.22,1383.81 1119.32,1383.78 1121.43,1383.75 1123.53,1383.72 1125.64,1383.69 1127.74,1383.66 1129.85,1383.62 1131.95,1383.59 1134.06,1383.56 1136.16,1383.53 1138.27,1383.5 1140.37,1383.46 1142.48,1383.43 1144.58,1383.39 1146.69,1383.36 1148.79,1383.33 1150.9,1383.29 1153,1383.26 1155.11,1383.22 1157.21,1383.19 1159.32,1383.15 1161.42,1383.12 1163.53,1383.08 1165.63,1383.05 1167.74,1383.01 1169.84,1382.97 1171.94,1382.94 1174.05,1382.9 1176.15,1382.87 1178.26,1382.83 1180.36,1382.8 1182.47,1382.76 1184.57,1382.73 1186.68,1382.69 1188.78,1382.66 1190.89,1382.62 1192.99,1382.58 1195.1,1382.55 1197.2,1382.52 1199.31,1382.48 1201.41,1382.45 1203.52,1382.41 1205.62,1382.38 1207.73,1382.34 1209.83,1382.31 1211.94,1382.28 1214.04,1382.24 1216.15,1382.21 1218.25,1382.18 1220.36,1382.14 1222.46,1382.11 1224.57,1382.08 1226.67,1382.05 1228.78,1382.01 1230.88,1381.98 1232.98,1381.95 1235.09,1381.92 1237.19,1381.89 1239.3,1381.86 1241.4,1381.83 1243.51,1381.8 1245.61,1381.77 1247.72,1381.74 1249.82,1381.71 1251.93,1381.68 1254.03,1381.65 1256.14,1381.62 1258.24,1381.59 1260.35,1381.56 1262.45,1381.54 1264.56,1381.51 1266.66,1381.48 1268.77,1381.45 1270.87,1381.43 1272.98,1381.4 1275.08,1381.38 1277.19,1381.35 1279.29,1381.32 1281.4,1381.3 1283.5,1381.27 1285.61,1381.25 1287.71,1381.22 1289.82,1381.2 1291.92,1381.18 1294.03,1381.15 1296.13,1381.13 1298.23,1381.11 1300.34,1381.08 1302.44,1381.06 1304.55,1381.04 1306.65,1381.02 1308.76,1381 1310.86,1380.97 1312.97,1380.95 1315.07,1380.93 1317.18,1380.91 1319.28,1380.89 1321.39,1380.87 1323.49,1380.85 1325.6,1380.83 1327.7,1380.81 1329.81,1380.79 1331.91,1380.78 1334.02,1380.76 1336.12,1380.74 1338.23,1380.72 1340.33,1380.7 1342.44,1380.69 1344.54,1380.67 1346.65,1380.65 1348.75,1380.64 1350.86,1380.62 1352.96,1380.6 1355.07,1380.59 1357.17,1380.57 1359.27,1380.56 1361.38,1380.54 1363.48,1380.53 1365.59,1380.51 1367.69,1380.5 1369.8,1380.48 1371.9,1380.47 1374.01,1380.46 1376.11,1380.44 1378.22,1380.43 1380.32,1380.42 1382.43,1380.4 1384.53,1380.39 1386.64,1380.38 1388.74,1380.37 1390.85,1380.35 1392.95,1380.34 1395.06,1380.33 1397.16,1380.32 1399.27,1380.31 1401.37,1380.3 1403.48,1380.29 1405.58,1380.27 1407.69,1380.26 1409.79,1380.25 1411.9,1380.24 1414,1380.23 1416.11,1380.22 1418.21,1380.21 1420.32,1380.2 1422.42,1380.2 1424.52,1380.19 1426.63,1380.18 1428.73,1380.17 1430.84,1380.16 1432.94,1380.15 1435.05,1380.14 1437.15,1380.14 1439.26,1380.13 1441.36,1380.12 1443.47,1380.11 1445.57,1380.1 1447.68,1380.1 1449.78,1380.09 1451.89,1380.08 1453.99,1380.08 1456.1,1380.07 1458.2,1380.06 1460.31,1380.06 1462.41,1380.05 1464.52,1380.04 1466.62,1380.04 1468.73,1380.03 1470.83,1380.02 1472.94,1380.02 1475.04,1380.01 1477.15,1380.01 1479.25,1380 1481.36,1380 1483.46,1379.99 1485.56,1379.99 1487.67,1379.98 1489.77,1379.98 1491.88,1379.97 1493.98,1379.97 1496.09,1379.96 1498.19,1379.96 1500.3,1379.95 1502.4,1379.95 1504.51,1379.94 1506.61,1379.94 1508.72,1379.94 1510.82,1379.93 1512.93,1379.93 1515.03,1379.93 1517.14,1379.92 1519.24,1379.92 1521.35,1379.91 1523.45,1379.91 1525.56,1379.91 1527.66,1379.9 1529.77,1379.9 1531.87,1379.9 1533.98,1379.89 1536.08,1379.89 1538.19,1379.89 1540.29,1379.89 1542.4,1379.88 1544.5,1379.88 1546.61,1379.88 1548.71,1379.88 1550.81,1379.87 1552.92,1379.87 1555.02,1379.87 1557.13,1379.87 1559.23,1379.86 1561.34,1379.86 1563.44,1379.86 1565.55,1379.86 1567.65,1379.86 1569.76,1379.85 1571.86,1379.85 1573.97,1379.85 1576.07,1379.85 1578.18,1379.85 1580.28,1379.84 1582.39,1379.84 1584.49,1379.84 1586.6,1379.84 1588.7,1379.84 1590.81,1379.84 1592.91,1379.83 1595.02,1379.83 1597.12,1379.83 1599.23,1379.83 1601.33,1379.83 1603.44,1379.83 1605.54,1379.83 1607.65,1379.83 1609.75,1379.82 1611.85,1379.82 1613.96,1379.82 1616.06,1379.82 1618.17,1379.82 1620.27,1379.82 1622.38,1379.82 1624.48,1379.82 1626.59,1379.82 1628.69,1379.82 1630.8,1379.81 1632.9,1379.81 1635.01,1379.81 1637.11,1379.81 1639.22,1379.81 1641.32,1379.81 1643.43,1379.81 1645.53,1379.81 1647.64,1379.81 1649.74,1379.81 1651.85,1379.81 1653.95,1379.81 1656.06,1379.81 1658.16,1379.81 1660.27,1379.81 1662.37,1379.81 1664.48,1379.8 1666.58,1379.8 1668.69,1379.8 1670.79,1379.8 1672.89,1379.8 1675,1379.8 1677.1,1379.8 1679.21,1379.8 1681.31,1379.8 1683.42,1379.8 1685.52,1379.8 1687.63,1379.8 1689.73,1379.8 1691.84,1379.8 1693.94,1379.8 1696.05,1379.8 1698.15,1379.8 1700.26,1379.8 1702.36,1379.8 1704.47,1379.8 1706.57,1379.8 1708.68,1379.8 1710.78,1379.8 1712.89,1379.8 1714.99,1379.8 1717.1,1379.8 1719.2,1379.8 1721.31,1379.8 1723.41,1379.8 1725.52,1379.8 1727.62,1379.8 1729.73,1379.8 1731.83,1379.8 1733.94,1379.8 1736.04,1379.8 1738.14,1379.8 1740.25,1379.8 1742.35,1379.8 1744.46,1379.8 1746.56,1379.8 1748.67,1379.8 1750.77,1379.8 1752.88,1379.8 1754.98,1379.8 1757.09,1379.8 1759.19,1379.8 1761.3,1379.8 1763.4,1379.8 1765.51,1379.8 1767.61,1379.8 1769.72,1379.8 1771.82,1379.8 1773.93,1379.8 1776.03,1379.8 1778.14,1379.8 1780.24,1379.8 1782.35,1379.8 1784.45,1379.8 1786.56,1379.8 1788.66,1379.8 1790.77,1379.8 1792.87,1379.8 1794.98,1379.8 1797.08,1379.8 1799.18,1379.8 1801.29,1379.8 1803.39,1379.8 1805.5,1379.8 1807.6,1379.8 1809.71,1379.8 1811.81,1379.8 1813.92,1379.8 1816.02,1379.8 1818.13,1379.8 1820.23,1379.8 1822.34,1379.8 1824.44,1379.8 1826.55,1379.8 1828.65,1379.8 1830.76,1379.8 1832.86,1379.8 1834.97,1379.8 1837.07,1379.8 1839.18,1379.8 1841.28,1379.8 1843.39,1379.8 1845.49,1379.8 1847.6,1379.8 1849.7,1379.8 1851.81,1379.8 1853.91,1379.8 1856.02,1379.8 1858.12,1379.8 1860.23,1379.8 1862.33,1379.8 1864.43,1379.8 1866.54,1379.8 1868.64,1379.8 1870.75,1379.8 1872.85,1379.8 1874.96,1379.8 1877.06,1379.8 1879.17,1379.8 1881.27,1379.8 1883.38,1379.8 1885.48,1379.8 1887.59,1379.8 1889.69,1379.8 1891.8,1379.8 1893.9,1379.8 1896.01,1379.8 1898.11,1379.8 1900.22,1379.8 1902.32,1379.8 1904.43,1379.8 1906.53,1379.81 1908.64,1379.81 1910.74,1379.81 1912.85,1379.81 1914.95,1379.81 1917.06,1379.81 1919.16,1379.81 1921.27,1379.81 1923.37,1379.81 1925.47,1379.81 1927.58,1379.81 1929.68,1379.81 1931.79,1379.81 1933.89,1379.81 1936,1379.81 1938.1,1379.81 1940.21,1379.81 1942.31,1379.81 1944.42,1379.81 1946.52,1379.81 1948.63,1379.81 1950.73,1379.81 1952.84,1379.81 1954.94,1379.81 1957.05,1379.81 1959.15,1379.81 1961.26,1379.81 1963.36,1379.81 1965.47,1379.81 1967.57,1379.81 1969.68,1379.81 1971.78,1379.81 1973.89,1379.81 1975.99,1379.81 1978.1,1379.81 1980.2,1379.81 1982.31,1379.81 1984.41,1379.81 1986.52,1379.81 1988.62,1379.81 1990.72,1379.81 1992.83,1379.81 1994.93,1379.81 1997.04,1379.81 1999.14,1379.81 2001.25,1379.81 2003.35,1379.81 2005.46,1379.81 2007.56,1379.81 2009.67,1379.81 2011.77,1379.81 2013.88,1379.81 2015.98,1379.81 2018.09,1379.81 2020.19,1379.81 2022.3,1379.81 2024.4,1379.81 2026.51,1379.81 2028.61,1379.81 2030.72,1379.81 2032.82,1379.81 2034.93,1379.81 2037.03,1379.81 2039.14,1379.81 2041.24,1379.81 2043.35,1379.81 2045.45,1379.81 2047.56,1379.81 2049.66,1379.81 2051.76,1379.81 2053.87,1379.81 2055.97,1379.81 2058.08,1379.81 2060.18,1379.81 2062.29,1379.81 2064.39,1379.81 2066.5,1379.81 2068.6,1379.81 2070.71,1379.81 2072.81,1379.81 2074.92,1379.81 2077.02,1379.81 2079.13,1379.81 2081.23,1379.81 2083.34,1379.81 2085.44,1379.81 2087.55,1379.81 2089.65,1379.81 2091.76,1379.81 2093.86,1379.81 2095.97,1379.81 2098.07,1379.81 2100.18,1379.81 2102.28,1379.81 2104.39,1379.81 2106.49,1379.81 2108.6,1379.81 2110.7,1379.81 2112.8,1379.81 2114.91,1379.81 2117.01,1379.81 2119.12,1379.81 2121.22,1379.81 2123.33,1379.81 2125.43,1379.81 2127.54,1379.81 2129.64,1379.81 2131.75,1379.81 2133.85,1379.81 2135.96,1379.81 2138.06,1379.81 2140.17,1379.81 2142.27,1379.81 2144.38,1379.81 2146.48,1379.81 2148.59,1379.81 2150.69,1379.81 2152.8,1379.81 2154.9,1379.81 2157.01,1379.81 2159.11,1379.81 2161.22,1379.81 2163.32,1379.81 2165.43,1379.81 2167.53,1379.81 2169.64,1379.81 2171.74,1379.81 2173.85,1379.81 2175.95,1379.81 2178.05,1379.81 2180.16,1379.81 2182.26,1379.81 2184.37,1379.81 2186.47,1379.81 2188.58,1379.81 2190.68,1379.81 2192.79,1379.81 2194.89,1379.81 2197,1379.81 2199.1,1379.81 2201.21,1379.81 2203.31,1379.81 2205.42,1379.81 2207.52,1379.81 2209.63,1379.81 2211.73,1379.81 2213.84,1379.81 2215.94,1379.81 2218.05,1379.81 2220.15,1379.81 2222.26,1379.81 2224.36,1379.81 2226.47,1379.81 2228.57,1379.81 2230.68,1379.81 2232.78,1379.81 2234.89,1379.81 2236.99,1379.81 2239.09,1379.81 2241.2,1379.81 2243.3,1379.81 2245.41,1379.81 2247.51,1379.81 2249.62,1379.81 2251.72,1379.81 2253.83,1379.81 2255.93,1379.81 2258.04,1379.81 2260.14,1379.81 2262.25,1379.81 2264.35,1379.81 2266.46,1379.81 2268.56,1379.81 2270.67,1379.81 2272.77,1379.81 2274.88,1379.81 2276.98,1379.81 2279.09,1379.81 2281.19,1379.81 2283.3,1379.81 2285.4,1379.81 2287.51,1379.81 2289.61,1379.81 2291.72,1379.81 2293.82,1379.81 2295.93,1379.81 2298.03,1379.81 2300.14,1379.81 2302.24,1379.81 2304.34,1379.81 2306.45,1379.81 2308.55,1379.81 2310.66,1379.81 2312.76,1379.81 2314.87,1379.81 2316.97,1379.81 2319.08,1379.81 2321.18,1379.81 2323.29,1379.81 2325.39,1379.81 2327.5,1379.81 2329.6,1379.81 2331.71,1379.81 2333.81,1379.81 2335.92,1379.81 2338.02,1379.81 2340.13,1379.81 2342.23,1379.81 2344.34,1379.81 2346.44,1379.81 2348.55,1379.81 2350.65,1379.81 2352.76,1379.81 "/>
<path clip-path="url(#clip800)" d="M1983.3 196.789 L2282.66 196.789 L2282.66 93.1086 L1983.3 93.1086  Z" fill="#ffffff" fill-rule="evenodd" fill-opacity="1"/>
<polyline clip-path="url(#clip800)" style="stroke:#000000; stroke-linecap:round; stroke-linejoin:round; stroke-width:4; stroke-opacity:1; fill:none" points="1983.3,196.789 2282.66,196.789 2282.66,93.1086 1983.3,93.1086 1983.3,196.789 "/>
<polyline clip-path="url(#clip800)" style="stroke:#009af9; stroke-linecap:round; stroke-linejoin:round; stroke-width:4; stroke-opacity:1; fill:none" points="2006.66,144.949 2146.84,144.949 "/>
<path clip-path="url(#clip800)" d="M2170.2 151.997 L2170.2 136.303 L2174.46 136.303 L2174.46 151.835 Q2174.46 155.516 2175.9 157.368 Q2177.33 159.196 2180.2 159.196 Q2183.65 159.196 2185.64 156.997 Q2187.66 154.798 2187.66 151.002 L2187.66 136.303 L2191.92 136.303 L2191.92 162.229 L2187.66 162.229 L2187.66 158.247 Q2186.11 160.608 2184.05 161.766 Q2182.01 162.9 2179.3 162.9 Q2174.83 162.9 2172.52 160.122 Q2170.2 157.344 2170.2 151.997 M2180.92 135.678 L2180.92 135.678 Z" fill="#000000" fill-rule="nonzero" fill-opacity="1" /><path clip-path="url(#clip800)" d="M2200.3 126.21 L2210.11 126.21 L2210.11 129.52 L2204.56 129.52 L2204.56 165.168 L2210.11 165.168 L2210.11 168.479 L2200.3 168.479 L2200.3 126.21 Z" fill="#000000" fill-rule="nonzero" fill-opacity="1" /><path clip-path="url(#clip800)" d="M2220.6 158.293 L2228.24 158.293 L2228.24 131.928 L2219.93 133.595 L2219.93 129.335 L2228.19 127.669 L2232.87 127.669 L2232.87 158.293 L2240.51 158.293 L2240.51 162.229 L2220.6 162.229 L2220.6 158.293 Z" fill="#000000" fill-rule="nonzero" fill-opacity="1" /><path clip-path="url(#clip800)" d="M2259.3 126.21 L2259.3 168.479 L2249.49 168.479 L2249.49 165.168 L2255.02 165.168 L2255.02 129.52 L2249.49 129.52 L2249.49 126.21 L2259.3 126.21 Z" fill="#000000" fill-rule="nonzero" fill-opacity="1" /></svg>
