<?xml version="1.0" encoding="utf-8"?>
<svg xmlns="http://www.w3.org/2000/svg" xmlns:xlink="http://www.w3.org/1999/xlink" width="600" height="400" viewBox="0 0 2400 1600">
<defs>
  <clipPath id="clip890">
    <rect x="0" y="0" width="2400" height="1600"/>
  </clipPath>
</defs>
<path clip-path="url(#clip890)" d="M0 1600 L2400 1600 L2400 8.88178e-14 L0 8.88178e-14  Z" fill="#ffffff" fill-rule="evenodd" fill-opacity="1"/>
<defs>
  <clipPath id="clip891">
    <rect x="480" y="0" width="1681" height="1600"/>
  </clipPath>
</defs>
<path clip-path="url(#clip890)" d="M279.704 1423.18 L2352.76 1423.18 L2352.76 47.2441 L279.704 47.2441  Z" fill="#ffffff" fill-rule="evenodd" fill-opacity="1"/>
<defs>
  <clipPath id="clip892">
    <rect x="279" y="47" width="2074" height="1377"/>
  </clipPath>
</defs>
<polyline clip-path="url(#clip892)" style="stroke:#000000; stroke-linecap:round; stroke-linejoin:round; stroke-width:2; stroke-opacity:0.1; fill:none" points="338.375,1423.18 338.375,47.2441 "/>
<polyline clip-path="url(#clip892)" style="stroke:#000000; stroke-linecap:round; stroke-linejoin:round; stroke-width:2; stroke-opacity:0.1; fill:none" points="729.674,1423.18 729.674,47.2441 "/>
<polyline clip-path="url(#clip892)" style="stroke:#000000; stroke-linecap:round; stroke-linejoin:round; stroke-width:2; stroke-opacity:0.1; fill:none" points="1120.97,1423.18 1120.97,47.2441 "/>
<polyline clip-path="url(#clip892)" style="stroke:#000000; stroke-linecap:round; stroke-linejoin:round; stroke-width:2; stroke-opacity:0.1; fill:none" points="1512.27,1423.18 1512.27,47.2441 "/>
<polyline clip-path="url(#clip892)" style="stroke:#000000; stroke-linecap:round; stroke-linejoin:round; stroke-width:2; stroke-opacity:0.1; fill:none" points="1903.57,1423.18 1903.57,47.2441 "/>
<polyline clip-path="url(#clip892)" style="stroke:#000000; stroke-linecap:round; stroke-linejoin:round; stroke-width:2; stroke-opacity:0.1; fill:none" points="2294.87,1423.18 2294.87,47.2441 "/>
<polyline clip-path="url(#clip890)" style="stroke:#000000; stroke-linecap:round; stroke-linejoin:round; stroke-width:4; stroke-opacity:1; fill:none" points="279.704,1423.18 2352.76,1423.18 "/>
<polyline clip-path="url(#clip890)" style="stroke:#000000; stroke-linecap:round; stroke-linejoin:round; stroke-width:4; stroke-opacity:1; fill:none" points="338.375,1423.18 338.375,1404.28 "/>
<polyline clip-path="url(#clip890)" style="stroke:#000000; stroke-linecap:round; stroke-linejoin:round; stroke-width:4; stroke-opacity:1; fill:none" points="729.674,1423.18 729.674,1404.28 "/>
<polyline clip-path="url(#clip890)" style="stroke:#000000; stroke-linecap:round; stroke-linejoin:round; stroke-width:4; stroke-opacity:1; fill:none" points="1120.97,1423.18 1120.97,1404.28 "/>
<polyline clip-path="url(#clip890)" style="stroke:#000000; stroke-linecap:round; stroke-linejoin:round; stroke-width:4; stroke-opacity:1; fill:none" points="1512.27,1423.18 1512.27,1404.28 "/>
<polyline clip-path="url(#clip890)" style="stroke:#000000; stroke-linecap:round; stroke-linejoin:round; stroke-width:4; stroke-opacity:1; fill:none" points="1903.57,1423.18 1903.57,1404.28 "/>
<polyline clip-path="url(#clip890)" style="stroke:#000000; stroke-linecap:round; stroke-linejoin:round; stroke-width:4; stroke-opacity:1; fill:none" points="2294.87,1423.18 2294.87,1404.28 "/>
<path clip-path="url(#clip890)" d="M338.375 1454.1 Q334.764 1454.1 332.935 1457.66 Q331.13 1461.2 331.13 1468.33 Q331.13 1475.44 332.935 1479.01 Q334.764 1482.55 338.375 1482.55 Q342.009 1482.55 343.815 1479.01 Q345.644 1475.44 345.644 1468.33 Q345.644 1461.2 343.815 1457.66 Q342.009 1454.1 338.375 1454.1 M338.375 1450.39 Q344.185 1450.39 347.241 1455 Q350.32 1459.58 350.32 1468.33 Q350.32 1477.06 347.241 1481.67 Q344.185 1486.25 338.375 1486.25 Q332.565 1486.25 329.486 1481.67 Q326.431 1477.06 326.431 1468.33 Q326.431 1459.58 329.486 1455 Q332.565 1450.39 338.375 1450.39 Z" fill="#000000" fill-rule="nonzero" fill-opacity="1" /><path clip-path="url(#clip890)" d="M720.056 1481.64 L727.694 1481.64 L727.694 1455.28 L719.384 1456.95 L719.384 1452.69 L727.648 1451.02 L732.324 1451.02 L732.324 1481.64 L739.963 1481.64 L739.963 1485.58 L720.056 1485.58 L720.056 1481.64 Z" fill="#000000" fill-rule="nonzero" fill-opacity="1" /><path clip-path="url(#clip890)" d="M1115.62 1481.64 L1131.94 1481.64 L1131.94 1485.58 L1110 1485.58 L1110 1481.64 Q1112.66 1478.89 1117.25 1474.26 Q1121.85 1469.61 1123.03 1468.27 Q1125.28 1465.74 1126.16 1464.01 Q1127.06 1462.25 1127.06 1460.56 Q1127.06 1457.8 1125.12 1456.07 Q1123.19 1454.33 1120.09 1454.33 Q1117.89 1454.33 1115.44 1455.09 Q1113.01 1455.86 1110.23 1457.41 L1110.23 1452.69 Q1113.06 1451.55 1115.51 1450.97 Q1117.96 1450.39 1120 1450.39 Q1125.37 1450.39 1128.56 1453.08 Q1131.76 1455.77 1131.76 1460.26 Q1131.76 1462.39 1130.95 1464.31 Q1130.16 1466.2 1128.06 1468.8 Q1127.48 1469.47 1124.37 1472.69 Q1121.27 1475.88 1115.62 1481.64 Z" fill="#000000" fill-rule="nonzero" fill-opacity="1" /><path clip-path="url(#clip890)" d="M1516.52 1466.95 Q1519.87 1467.66 1521.75 1469.93 Q1523.65 1472.2 1523.65 1475.53 Q1523.65 1480.65 1520.13 1483.45 Q1516.61 1486.25 1510.13 1486.25 Q1507.95 1486.25 1505.64 1485.81 Q1503.35 1485.39 1500.89 1484.54 L1500.89 1480.02 Q1502.84 1481.16 1505.15 1481.74 Q1507.47 1482.32 1509.99 1482.32 Q1514.39 1482.32 1516.68 1480.58 Q1518.99 1478.84 1518.99 1475.53 Q1518.99 1472.48 1516.84 1470.77 Q1514.71 1469.03 1510.89 1469.03 L1506.87 1469.03 L1506.87 1465.19 L1511.08 1465.19 Q1514.53 1465.19 1516.36 1463.82 Q1518.18 1462.43 1518.18 1459.84 Q1518.18 1457.18 1516.29 1455.77 Q1514.41 1454.33 1510.89 1454.33 Q1508.97 1454.33 1506.77 1454.75 Q1504.57 1455.16 1501.93 1456.04 L1501.93 1451.88 Q1504.6 1451.14 1506.91 1450.77 Q1509.25 1450.39 1511.31 1450.39 Q1516.63 1450.39 1519.74 1452.83 Q1522.84 1455.23 1522.84 1459.35 Q1522.84 1462.22 1521.19 1464.21 Q1519.55 1466.18 1516.52 1466.95 Z" fill="#000000" fill-rule="nonzero" fill-opacity="1" /><path clip-path="url(#clip890)" d="M1906.58 1455.09 L1894.77 1473.54 L1906.58 1473.54 L1906.58 1455.09 M1905.35 1451.02 L1911.23 1451.02 L1911.23 1473.54 L1916.16 1473.54 L1916.16 1477.43 L1911.23 1477.43 L1911.23 1485.58 L1906.58 1485.58 L1906.58 1477.43 L1890.98 1477.43 L1890.98 1472.92 L1905.35 1451.02 Z" fill="#000000" fill-rule="nonzero" fill-opacity="1" /><path clip-path="url(#clip890)" d="M2285.15 1451.02 L2303.5 1451.02 L2303.5 1454.96 L2289.43 1454.96 L2289.43 1463.43 Q2290.45 1463.08 2291.46 1462.92 Q2292.48 1462.73 2293.5 1462.73 Q2299.29 1462.73 2302.67 1465.9 Q2306.05 1469.08 2306.05 1474.49 Q2306.05 1480.07 2302.58 1483.17 Q2299.1 1486.25 2292.78 1486.25 Q2290.61 1486.25 2288.34 1485.88 Q2286.09 1485.51 2283.69 1484.77 L2283.69 1480.07 Q2285.77 1481.2 2287.99 1481.76 Q2290.21 1482.32 2292.69 1482.32 Q2296.7 1482.32 2299.03 1480.21 Q2301.37 1478.1 2301.37 1474.49 Q2301.37 1470.88 2299.03 1468.77 Q2296.7 1466.67 2292.69 1466.67 Q2290.82 1466.67 2288.94 1467.08 Q2287.09 1467.5 2285.15 1468.38 L2285.15 1451.02 Z" fill="#000000" fill-rule="nonzero" fill-opacity="1" /><path clip-path="url(#clip890)" d="M1186.4 1520.52 L1226.6 1520.52 L1226.6 1525.93 L1209.73 1525.93 L1209.73 1568.04 L1203.27 1568.04 L1203.27 1525.93 L1186.4 1525.93 L1186.4 1520.52 Z" fill="#000000" fill-rule="nonzero" fill-opacity="1" /><path clip-path="url(#clip890)" d="M1230.55 1532.4 L1236.4 1532.4 L1236.4 1568.04 L1230.55 1568.04 L1230.55 1532.4 M1230.55 1518.52 L1236.4 1518.52 L1236.4 1525.93 L1230.55 1525.93 L1230.55 1518.52 Z" fill="#000000" fill-rule="nonzero" fill-opacity="1" /><path clip-path="url(#clip890)" d="M1276.41 1539.24 Q1278.61 1535.29 1281.66 1533.41 Q1284.72 1531.54 1288.86 1531.54 Q1294.43 1531.54 1297.45 1535.45 Q1300.47 1539.33 1300.47 1546.53 L1300.47 1568.04 L1294.59 1568.04 L1294.59 1546.72 Q1294.59 1541.59 1292.77 1539.11 Q1290.96 1536.63 1287.23 1536.63 Q1282.68 1536.63 1280.04 1539.65 Q1277.4 1542.68 1277.4 1547.9 L1277.4 1568.04 L1271.51 1568.04 L1271.51 1546.72 Q1271.51 1541.56 1269.7 1539.11 Q1267.88 1536.63 1264.09 1536.63 Q1259.61 1536.63 1256.97 1539.68 Q1254.32 1542.71 1254.32 1547.9 L1254.32 1568.04 L1248.44 1568.04 L1248.44 1532.4 L1254.32 1532.4 L1254.32 1537.93 Q1256.33 1534.66 1259.13 1533.1 Q1261.93 1531.54 1265.78 1531.54 Q1269.66 1531.54 1272.37 1533.51 Q1275.11 1535.48 1276.41 1539.24 Z" fill="#000000" fill-rule="nonzero" fill-opacity="1" /><path clip-path="url(#clip890)" d="M1342.65 1548.76 L1342.65 1551.62 L1315.72 1551.62 Q1316.1 1557.67 1319.35 1560.85 Q1322.63 1564 1328.45 1564 Q1331.83 1564 1334.98 1563.17 Q1338.16 1562.35 1341.28 1560.69 L1341.28 1566.23 Q1338.13 1567.57 1334.82 1568.27 Q1331.51 1568.97 1328.1 1568.97 Q1319.57 1568.97 1314.57 1564 Q1309.61 1559.04 1309.61 1550.57 Q1309.61 1541.82 1314.32 1536.69 Q1319.06 1531.54 1327.08 1531.54 Q1334.28 1531.54 1338.45 1536.18 Q1342.65 1540.8 1342.65 1548.76 M1336.79 1547.04 Q1336.73 1542.23 1334.09 1539.37 Q1331.48 1536.5 1327.15 1536.5 Q1322.25 1536.5 1319.29 1539.27 Q1316.36 1542.04 1315.91 1547.07 L1336.79 1547.04 Z" fill="#000000" fill-rule="nonzero" fill-opacity="1" /><path clip-path="url(#clip890)" d="M1387.05 1518.58 Q1382.78 1525.9 1380.71 1533.06 Q1378.65 1540.23 1378.65 1547.58 Q1378.65 1554.93 1380.71 1562.16 Q1382.82 1569.35 1387.05 1576.64 L1381.96 1576.64 Q1377.18 1569.16 1374.79 1561.93 Q1372.44 1554.71 1372.44 1547.58 Q1372.44 1540.48 1374.79 1533.29 Q1377.15 1526.09 1381.96 1518.58 L1387.05 1518.58 Z" fill="#000000" fill-rule="nonzero" fill-opacity="1" /><path clip-path="url(#clip890)" d="M1421.14 1533.45 L1421.14 1538.98 Q1418.65 1537.71 1415.98 1537.07 Q1413.31 1536.44 1410.44 1536.44 Q1406.08 1536.44 1403.89 1537.77 Q1401.72 1539.11 1401.72 1541.79 Q1401.72 1543.82 1403.28 1545 Q1404.84 1546.15 1409.55 1547.2 L1411.56 1547.64 Q1417.79 1548.98 1420.4 1551.43 Q1423.05 1553.85 1423.05 1558.21 Q1423.05 1563.17 1419.1 1566.07 Q1415.18 1568.97 1408.31 1568.97 Q1405.45 1568.97 1402.33 1568.39 Q1399.24 1567.85 1395.8 1566.74 L1395.8 1560.69 Q1399.05 1562.38 1402.2 1563.24 Q1405.35 1564.07 1408.44 1564.07 Q1412.57 1564.07 1414.8 1562.66 Q1417.03 1561.23 1417.03 1558.65 Q1417.03 1556.27 1415.41 1554.99 Q1413.82 1553.72 1408.37 1552.54 L1406.34 1552.07 Q1400.89 1550.92 1398.47 1548.56 Q1396.06 1546.18 1396.06 1542.04 Q1396.06 1537.01 1399.62 1534.27 Q1403.19 1531.54 1409.74 1531.54 Q1412.99 1531.54 1415.85 1532.01 Q1418.72 1532.49 1421.14 1533.45 Z" fill="#000000" fill-rule="nonzero" fill-opacity="1" /><path clip-path="url(#clip890)" d="M1431.45 1518.58 L1436.54 1518.58 Q1441.32 1526.09 1443.67 1533.29 Q1446.06 1540.48 1446.06 1547.58 Q1446.06 1554.71 1443.67 1561.93 Q1441.32 1569.16 1436.54 1576.64 L1431.45 1576.64 Q1435.68 1569.35 1437.75 1562.16 Q1439.85 1554.93 1439.85 1547.58 Q1439.85 1540.23 1437.75 1533.06 Q1435.68 1525.9 1431.45 1518.58 Z" fill="#000000" fill-rule="nonzero" fill-opacity="1" /><polyline clip-path="url(#clip892)" style="stroke:#000000; stroke-linecap:round; stroke-linejoin:round; stroke-width:2; stroke-opacity:0.1; fill:none" points="279.704,1379.81 2352.76,1379.81 "/>
<polyline clip-path="url(#clip892)" style="stroke:#000000; stroke-linecap:round; stroke-linejoin:round; stroke-width:2; stroke-opacity:0.1; fill:none" points="279.704,1057.13 2352.76,1057.13 "/>
<polyline clip-path="url(#clip892)" style="stroke:#000000; stroke-linecap:round; stroke-linejoin:round; stroke-width:2; stroke-opacity:0.1; fill:none" points="279.704,734.452 2352.76,734.452 "/>
<polyline clip-path="url(#clip892)" style="stroke:#000000; stroke-linecap:round; stroke-linejoin:round; stroke-width:2; stroke-opacity:0.1; fill:none" points="279.704,411.772 2352.76,411.772 "/>
<polyline clip-path="url(#clip892)" style="stroke:#000000; stroke-linecap:round; stroke-linejoin:round; stroke-width:2; stroke-opacity:0.1; fill:none" points="279.704,89.0918 2352.76,89.0918 "/>
<polyline clip-path="url(#clip890)" style="stroke:#000000; stroke-linecap:round; stroke-linejoin:round; stroke-width:4; stroke-opacity:1; fill:none" points="279.704,1423.18 279.704,47.2441 "/>
<polyline clip-path="url(#clip890)" style="stroke:#000000; stroke-linecap:round; stroke-linejoin:round; stroke-width:4; stroke-opacity:1; fill:none" points="279.704,1379.81 298.602,1379.81 "/>
<polyline clip-path="url(#clip890)" style="stroke:#000000; stroke-linecap:round; stroke-linejoin:round; stroke-width:4; stroke-opacity:1; fill:none" points="279.704,1057.13 298.602,1057.13 "/>
<polyline clip-path="url(#clip890)" style="stroke:#000000; stroke-linecap:round; stroke-linejoin:round; stroke-width:4; stroke-opacity:1; fill:none" points="279.704,734.452 298.602,734.452 "/>
<polyline clip-path="url(#clip890)" style="stroke:#000000; stroke-linecap:round; stroke-linejoin:round; stroke-width:4; stroke-opacity:1; fill:none" points="279.704,411.772 298.602,411.772 "/>
<polyline clip-path="url(#clip890)" style="stroke:#000000; stroke-linecap:round; stroke-linejoin:round; stroke-width:4; stroke-opacity:1; fill:none" points="279.704,89.0918 298.602,89.0918 "/>
<path clip-path="url(#clip890)" d="M126.205 1365.61 Q122.593 1365.61 120.765 1369.18 Q118.959 1372.72 118.959 1379.85 Q118.959 1386.95 120.765 1390.52 Q122.593 1394.06 126.205 1394.06 Q129.839 1394.06 131.644 1390.52 Q133.473 1386.95 133.473 1379.85 Q133.473 1372.72 131.644 1369.18 Q129.839 1365.61 126.205 1365.61 M126.205 1361.91 Q132.015 1361.91 135.07 1366.51 Q138.149 1371.1 138.149 1379.85 Q138.149 1388.57 135.07 1393.18 Q132.015 1397.76 126.205 1397.76 Q120.394 1397.76 117.316 1393.18 Q114.26 1388.57 114.26 1379.85 Q114.26 1371.1 117.316 1366.51 Q120.394 1361.91 126.205 1361.91 Z" fill="#000000" fill-rule="nonzero" fill-opacity="1" /><path clip-path="url(#clip890)" d="M146.366 1391.21 L151.251 1391.21 L151.251 1397.09 L146.366 1397.09 L146.366 1391.21 Z" fill="#000000" fill-rule="nonzero" fill-opacity="1" /><path clip-path="url(#clip890)" d="M171.436 1365.61 Q167.825 1365.61 165.996 1369.18 Q164.19 1372.72 164.19 1379.85 Q164.19 1386.95 165.996 1390.52 Q167.825 1394.06 171.436 1394.06 Q175.07 1394.06 176.876 1390.52 Q178.704 1386.95 178.704 1379.85 Q178.704 1372.72 176.876 1369.18 Q175.07 1365.61 171.436 1365.61 M171.436 1361.91 Q177.246 1361.91 180.301 1366.51 Q183.38 1371.1 183.38 1379.85 Q183.38 1388.57 180.301 1393.18 Q177.246 1397.76 171.436 1397.76 Q165.626 1397.76 162.547 1393.18 Q159.491 1388.57 159.491 1379.85 Q159.491 1371.1 162.547 1366.51 Q165.626 1361.91 171.436 1361.91 Z" fill="#000000" fill-rule="nonzero" fill-opacity="1" /><path clip-path="url(#clip890)" d="M201.598 1365.61 Q197.987 1365.61 196.158 1369.18 Q194.352 1372.72 194.352 1379.85 Q194.352 1386.95 196.158 1390.52 Q197.987 1394.06 201.598 1394.06 Q205.232 1394.06 207.037 1390.52 Q208.866 1386.95 208.866 1379.85 Q208.866 1372.72 207.037 1369.18 Q205.232 1365.61 201.598 1365.61 M201.598 1361.91 Q207.408 1361.91 210.463 1366.51 Q213.542 1371.1 213.542 1379.85 Q213.542 1388.57 210.463 1393.18 Q207.408 1397.76 201.598 1397.76 Q195.787 1397.76 192.709 1393.18 Q189.653 1388.57 189.653 1379.85 Q189.653 1371.1 192.709 1366.51 Q195.787 1361.91 201.598 1361.91 Z" fill="#000000" fill-rule="nonzero" fill-opacity="1" /><path clip-path="url(#clip890)" d="M231.76 1365.61 Q228.148 1365.61 226.32 1369.18 Q224.514 1372.72 224.514 1379.85 Q224.514 1386.95 226.32 1390.52 Q228.148 1394.06 231.76 1394.06 Q235.394 1394.06 237.199 1390.52 Q239.028 1386.95 239.028 1379.85 Q239.028 1372.72 237.199 1369.18 Q235.394 1365.61 231.76 1365.61 M231.76 1361.91 Q237.57 1361.91 240.625 1366.51 Q243.704 1371.1 243.704 1379.85 Q243.704 1388.57 240.625 1393.18 Q237.57 1397.76 231.76 1397.76 Q225.949 1397.76 222.871 1393.18 Q219.815 1388.57 219.815 1379.85 Q219.815 1371.1 222.871 1366.51 Q225.949 1361.91 231.76 1361.91 Z" fill="#000000" fill-rule="nonzero" fill-opacity="1" /><path clip-path="url(#clip890)" d="M127.2 1042.93 Q123.589 1042.93 121.76 1046.5 Q119.955 1050.04 119.955 1057.17 Q119.955 1064.27 121.76 1067.84 Q123.589 1071.38 127.2 1071.38 Q130.834 1071.38 132.64 1067.84 Q134.468 1064.27 134.468 1057.17 Q134.468 1050.04 132.64 1046.5 Q130.834 1042.93 127.2 1042.93 M127.2 1039.23 Q133.01 1039.23 136.066 1043.83 Q139.144 1048.42 139.144 1057.17 Q139.144 1065.89 136.066 1070.5 Q133.01 1075.08 127.2 1075.08 Q121.39 1075.08 118.311 1070.5 Q115.256 1065.89 115.256 1057.17 Q115.256 1048.42 118.311 1043.83 Q121.39 1039.23 127.2 1039.23 Z" fill="#000000" fill-rule="nonzero" fill-opacity="1" /><path clip-path="url(#clip890)" d="M147.362 1068.53 L152.246 1068.53 L152.246 1074.41 L147.362 1074.41 L147.362 1068.53 Z" fill="#000000" fill-rule="nonzero" fill-opacity="1" /><path clip-path="url(#clip890)" d="M172.431 1042.93 Q168.82 1042.93 166.991 1046.5 Q165.186 1050.04 165.186 1057.17 Q165.186 1064.27 166.991 1067.84 Q168.82 1071.38 172.431 1071.38 Q176.065 1071.38 177.871 1067.84 Q179.7 1064.27 179.7 1057.17 Q179.7 1050.04 177.871 1046.5 Q176.065 1042.93 172.431 1042.93 M172.431 1039.23 Q178.241 1039.23 181.297 1043.83 Q184.376 1048.42 184.376 1057.17 Q184.376 1065.89 181.297 1070.5 Q178.241 1075.08 172.431 1075.08 Q166.621 1075.08 163.542 1070.5 Q160.487 1065.89 160.487 1057.17 Q160.487 1048.42 163.542 1043.83 Q166.621 1039.23 172.431 1039.23 Z" fill="#000000" fill-rule="nonzero" fill-opacity="1" /><path clip-path="url(#clip890)" d="M196.621 1070.48 L212.94 1070.48 L212.94 1074.41 L190.996 1074.41 L190.996 1070.48 Q193.658 1067.72 198.241 1063.09 Q202.848 1058.44 204.028 1057.1 Q206.274 1054.57 207.153 1052.84 Q208.056 1051.08 208.056 1049.39 Q208.056 1046.63 206.112 1044.9 Q204.19 1043.16 201.088 1043.16 Q198.889 1043.16 196.436 1043.93 Q194.005 1044.69 191.227 1046.24 L191.227 1041.52 Q194.051 1040.38 196.505 1039.81 Q198.959 1039.23 200.996 1039.23 Q206.366 1039.23 209.561 1041.91 Q212.755 1044.6 212.755 1049.09 Q212.755 1051.22 211.945 1053.14 Q211.158 1055.04 209.051 1057.63 Q208.473 1058.3 205.371 1061.52 Q202.269 1064.71 196.621 1070.48 Z" fill="#000000" fill-rule="nonzero" fill-opacity="1" /><path clip-path="url(#clip890)" d="M222.801 1039.85 L241.158 1039.85 L241.158 1043.79 L227.084 1043.79 L227.084 1052.26 Q228.102 1051.91 229.121 1051.75 Q230.139 1051.57 231.158 1051.57 Q236.945 1051.57 240.324 1054.74 Q243.704 1057.91 243.704 1063.32 Q243.704 1068.9 240.232 1072.01 Q236.76 1075.08 230.44 1075.08 Q228.264 1075.08 225.996 1074.71 Q223.75 1074.34 221.343 1073.6 L221.343 1068.9 Q223.426 1070.04 225.648 1070.59 Q227.871 1071.15 230.347 1071.15 Q234.352 1071.15 236.69 1069.04 Q239.028 1066.94 239.028 1063.32 Q239.028 1059.71 236.69 1057.61 Q234.352 1055.5 230.347 1055.5 Q228.473 1055.5 226.598 1055.92 Q224.746 1056.33 222.801 1057.21 L222.801 1039.85 Z" fill="#000000" fill-rule="nonzero" fill-opacity="1" /><path clip-path="url(#clip890)" d="M126.205 720.251 Q122.593 720.251 120.765 723.816 Q118.959 727.357 118.959 734.487 Q118.959 741.593 120.765 745.158 Q122.593 748.7 126.205 748.7 Q129.839 748.7 131.644 745.158 Q133.473 741.593 133.473 734.487 Q133.473 727.357 131.644 723.816 Q129.839 720.251 126.205 720.251 M126.205 716.547 Q132.015 716.547 135.07 721.154 Q138.149 725.737 138.149 734.487 Q138.149 743.214 135.07 747.82 Q132.015 752.403 126.205 752.403 Q120.394 752.403 117.316 747.82 Q114.26 743.214 114.26 734.487 Q114.26 725.737 117.316 721.154 Q120.394 716.547 126.205 716.547 Z" fill="#000000" fill-rule="nonzero" fill-opacity="1" /><path clip-path="url(#clip890)" d="M146.366 745.853 L151.251 745.853 L151.251 751.732 L146.366 751.732 L146.366 745.853 Z" fill="#000000" fill-rule="nonzero" fill-opacity="1" /><path clip-path="url(#clip890)" d="M171.436 720.251 Q167.825 720.251 165.996 723.816 Q164.19 727.357 164.19 734.487 Q164.19 741.593 165.996 745.158 Q167.825 748.7 171.436 748.7 Q175.07 748.7 176.876 745.158 Q178.704 741.593 178.704 734.487 Q178.704 727.357 176.876 723.816 Q175.07 720.251 171.436 720.251 M171.436 716.547 Q177.246 716.547 180.301 721.154 Q183.38 725.737 183.38 734.487 Q183.38 743.214 180.301 747.82 Q177.246 752.403 171.436 752.403 Q165.626 752.403 162.547 747.82 Q159.491 743.214 159.491 734.487 Q159.491 725.737 162.547 721.154 Q165.626 716.547 171.436 716.547 Z" fill="#000000" fill-rule="nonzero" fill-opacity="1" /><path clip-path="url(#clip890)" d="M191.644 717.172 L210 717.172 L210 721.107 L195.926 721.107 L195.926 729.58 Q196.945 729.232 197.963 729.07 Q198.982 728.885 200 728.885 Q205.787 728.885 209.167 732.056 Q212.547 735.228 212.547 740.644 Q212.547 746.223 209.074 749.325 Q205.602 752.403 199.283 752.403 Q197.107 752.403 194.838 752.033 Q192.593 751.663 190.186 750.922 L190.186 746.223 Q192.269 747.357 194.491 747.913 Q196.713 748.468 199.19 748.468 Q203.195 748.468 205.533 746.362 Q207.871 744.255 207.871 740.644 Q207.871 737.033 205.533 734.927 Q203.195 732.82 199.19 732.82 Q197.315 732.82 195.44 733.237 Q193.588 733.654 191.644 734.533 L191.644 717.172 Z" fill="#000000" fill-rule="nonzero" fill-opacity="1" /><path clip-path="url(#clip890)" d="M231.76 720.251 Q228.148 720.251 226.32 723.816 Q224.514 727.357 224.514 734.487 Q224.514 741.593 226.32 745.158 Q228.148 748.7 231.76 748.7 Q235.394 748.7 237.199 745.158 Q239.028 741.593 239.028 734.487 Q239.028 727.357 237.199 723.816 Q235.394 720.251 231.76 720.251 M231.76 716.547 Q237.57 716.547 240.625 721.154 Q243.704 725.737 243.704 734.487 Q243.704 743.214 240.625 747.82 Q237.57 752.403 231.76 752.403 Q225.949 752.403 222.871 747.82 Q219.815 743.214 219.815 734.487 Q219.815 725.737 222.871 721.154 Q225.949 716.547 231.76 716.547 Z" fill="#000000" fill-rule="nonzero" fill-opacity="1" /><path clip-path="url(#clip890)" d="M127.2 397.571 Q123.589 397.571 121.76 401.135 Q119.955 404.677 119.955 411.807 Q119.955 418.913 121.76 422.478 Q123.589 426.02 127.2 426.02 Q130.834 426.02 132.64 422.478 Q134.468 418.913 134.468 411.807 Q134.468 404.677 132.64 401.135 Q130.834 397.571 127.2 397.571 M127.2 393.867 Q133.01 393.867 136.066 398.473 Q139.144 403.057 139.144 411.807 Q139.144 420.534 136.066 425.14 Q133.01 429.723 127.2 429.723 Q121.39 429.723 118.311 425.14 Q115.256 420.534 115.256 411.807 Q115.256 403.057 118.311 398.473 Q121.39 393.867 127.2 393.867 Z" fill="#000000" fill-rule="nonzero" fill-opacity="1" /><path clip-path="url(#clip890)" d="M147.362 423.172 L152.246 423.172 L152.246 429.052 L147.362 429.052 L147.362 423.172 Z" fill="#000000" fill-rule="nonzero" fill-opacity="1" /><path clip-path="url(#clip890)" d="M172.431 397.571 Q168.82 397.571 166.991 401.135 Q165.186 404.677 165.186 411.807 Q165.186 418.913 166.991 422.478 Q168.82 426.02 172.431 426.02 Q176.065 426.02 177.871 422.478 Q179.7 418.913 179.7 411.807 Q179.7 404.677 177.871 401.135 Q176.065 397.571 172.431 397.571 M172.431 393.867 Q178.241 393.867 181.297 398.473 Q184.376 403.057 184.376 411.807 Q184.376 420.534 181.297 425.14 Q178.241 429.723 172.431 429.723 Q166.621 429.723 163.542 425.14 Q160.487 420.534 160.487 411.807 Q160.487 403.057 163.542 398.473 Q166.621 393.867 172.431 393.867 Z" fill="#000000" fill-rule="nonzero" fill-opacity="1" /><path clip-path="url(#clip890)" d="M191.413 394.492 L213.635 394.492 L213.635 396.483 L201.088 429.052 L196.204 429.052 L208.01 398.427 L191.413 398.427 L191.413 394.492 Z" fill="#000000" fill-rule="nonzero" fill-opacity="1" /><path clip-path="url(#clip890)" d="M222.801 394.492 L241.158 394.492 L241.158 398.427 L227.084 398.427 L227.084 406.899 Q228.102 406.552 229.121 406.39 Q230.139 406.205 231.158 406.205 Q236.945 406.205 240.324 409.376 Q243.704 412.547 243.704 417.964 Q243.704 423.543 240.232 426.645 Q236.76 429.723 230.44 429.723 Q228.264 429.723 225.996 429.353 Q223.75 428.983 221.343 428.242 L221.343 423.543 Q223.426 424.677 225.648 425.233 Q227.871 425.788 230.347 425.788 Q234.352 425.788 236.69 423.682 Q239.028 421.575 239.028 417.964 Q239.028 414.353 236.69 412.247 Q234.352 410.14 230.347 410.14 Q228.473 410.14 226.598 410.557 Q224.746 410.973 222.801 411.853 L222.801 394.492 Z" fill="#000000" fill-rule="nonzero" fill-opacity="1" /><path clip-path="url(#clip890)" d="M126.205 74.8904 Q122.593 74.8904 120.765 78.4552 Q118.959 81.9969 118.959 89.1265 Q118.959 96.2329 120.765 99.7977 Q122.593 103.339 126.205 103.339 Q129.839 103.339 131.644 99.7977 Q133.473 96.2329 133.473 89.1265 Q133.473 81.9969 131.644 78.4552 Q129.839 74.8904 126.205 74.8904 M126.205 71.1868 Q132.015 71.1868 135.07 75.7932 Q138.149 80.3765 138.149 89.1265 Q138.149 97.8533 135.07 102.46 Q132.015 107.043 126.205 107.043 Q120.394 107.043 117.316 102.46 Q114.26 97.8533 114.26 89.1265 Q114.26 80.3765 117.316 75.7932 Q120.394 71.1868 126.205 71.1868 Z" fill="#000000" fill-rule="nonzero" fill-opacity="1" /><path clip-path="url(#clip890)" d="M146.366 100.492 L151.251 100.492 L151.251 106.372 L146.366 106.372 L146.366 100.492 Z" fill="#000000" fill-rule="nonzero" fill-opacity="1" /><path clip-path="url(#clip890)" d="M162.246 102.437 L169.885 102.437 L169.885 76.071 L161.575 77.7377 L161.575 73.4784 L169.839 71.8118 L174.514 71.8118 L174.514 102.437 L182.153 102.437 L182.153 106.372 L162.246 106.372 L162.246 102.437 Z" fill="#000000" fill-rule="nonzero" fill-opacity="1" /><path clip-path="url(#clip890)" d="M201.598 74.8904 Q197.987 74.8904 196.158 78.4552 Q194.352 81.9969 194.352 89.1265 Q194.352 96.2329 196.158 99.7977 Q197.987 103.339 201.598 103.339 Q205.232 103.339 207.037 99.7977 Q208.866 96.2329 208.866 89.1265 Q208.866 81.9969 207.037 78.4552 Q205.232 74.8904 201.598 74.8904 M201.598 71.1868 Q207.408 71.1868 210.463 75.7932 Q213.542 80.3765 213.542 89.1265 Q213.542 97.8533 210.463 102.46 Q207.408 107.043 201.598 107.043 Q195.787 107.043 192.709 102.46 Q189.653 97.8533 189.653 89.1265 Q189.653 80.3765 192.709 75.7932 Q195.787 71.1868 201.598 71.1868 Z" fill="#000000" fill-rule="nonzero" fill-opacity="1" /><path clip-path="url(#clip890)" d="M231.76 74.8904 Q228.148 74.8904 226.32 78.4552 Q224.514 81.9969 224.514 89.1265 Q224.514 96.2329 226.32 99.7977 Q228.148 103.339 231.76 103.339 Q235.394 103.339 237.199 99.7977 Q239.028 96.2329 239.028 89.1265 Q239.028 81.9969 237.199 78.4552 Q235.394 74.8904 231.76 74.8904 M231.76 71.1868 Q237.57 71.1868 240.625 75.7932 Q243.704 80.3765 243.704 89.1265 Q243.704 97.8533 240.625 102.46 Q237.57 107.043 231.76 107.043 Q225.949 107.043 222.871 102.46 Q219.815 97.8533 219.815 89.1265 Q219.815 80.3765 222.871 75.7932 Q225.949 71.1868 231.76 71.1868 Z" fill="#000000" fill-rule="nonzero" fill-opacity="1" /><path clip-path="url(#clip890)" d="M67.3143 733.525 Q73.68 736.008 75.6216 738.363 Q77.5631 740.718 77.5631 744.665 L77.5631 749.344 L72.6615 749.344 L72.6615 745.906 Q72.6615 743.487 71.5157 742.151 Q70.3699 740.814 66.1048 739.191 L63.4312 738.14 L28.3562 752.559 L28.3562 746.352 L56.238 735.212 L28.3562 724.072 L28.3562 717.865 L67.3143 733.525 Z" fill="#000000" fill-rule="nonzero" fill-opacity="1" /><polyline clip-path="url(#clip892)" style="stroke:#009af9; stroke-linecap:round; stroke-linejoin:round; stroke-width:4; stroke-opacity:1; fill:none" points="338.375,1379.81 346.592,1128.04 354.81,912.334 363.027,729.184 371.244,575.338 379.462,447.8 387.679,343.809 395.896,260.829 404.113,196.531 412.331,148.782 420.548,115.635 428.765,95.3089 436.982,86.1857 445.2,86.7933 453.417,95.7975 461.634,111.991 469.851,134.286 478.069,161.701 486.286,193.356 494.503,228.465 502.721,266.325 510.938,306.312 519.155,347.872 527.372,390.518 535.59,433.822 543.807,477.41 552.024,520.957 560.241,564.183 568.459,606.849 576.676,648.752 584.893,689.72 593.11,729.614 601.328,768.317 609.545,805.74 617.762,841.812 625.98,876.481 634.197,909.711 642.414,941.482 650.631,971.783 658.849,1000.62 667.066,1028 675.283,1053.94 683.5,1078.48 691.718,1101.63 699.935,1123.45 708.152,1143.96 716.369,1163.22 724.587,1181.26 732.804,1198.14 741.021,1213.91 749.239,1228.6 757.456,1242.28 765.673,1255 773.89,1266.79 782.108,1277.71 790.325,1287.81 798.542,1297.13 806.759,1305.72 814.977,1313.62 823.194,1320.87 831.411,1327.52 839.628,1333.6 847.846,1339.16 856.063,1344.22 864.28,1348.82 872.498,1353 880.715,1356.78 888.932,1360.2 897.149,1363.28 905.367,1366.04 913.584,1368.52 921.801,1370.73 930.018,1372.7 938.236,1374.45 946.453,1375.99 954.67,1377.35 962.887,1378.54 971.105,1379.57 979.322,1380.47 987.539,1381.24 995.757,1381.89 1003.97,1382.44 1012.19,1382.9 1020.41,1383.27 1028.63,1383.57 1036.84,1383.81 1045.06,1383.99 1053.28,1384.11 1061.49,1384.19 1069.71,1384.23 1077.93,1384.24 1086.15,1384.21 1094.36,1384.16 1102.58,1384.09 1110.8,1384 1119.02,1383.9 1127.23,1383.78 1135.45,1383.65 1143.67,1383.52 1151.88,1383.38 1160.1,1383.23 1168.32,1383.09 1176.54,1382.94 1184.75,1382.79 1192.97,1382.64 1201.19,1382.49 1209.41,1382.35 1217.62,1382.21 1225.84,1382.07 1234.06,1381.94 1242.27,1381.81 1250.49,1381.68 1258.71,1381.56 1266.93,1381.45 1275.14,1381.34 1283.36,1381.23 1291.58,1381.13 1299.8,1381.04 1308.01,1380.95 1316.23,1380.86 1324.45,1380.78 1332.66,1380.71 1340.88,1380.64 1349.1,1380.57 1357.32,1380.51 1365.53,1380.45 1373.75,1380.39 1381.97,1380.34 1390.19,1380.29 1398.4,1380.25 1406.62,1380.21 1414.84,1380.17 1423.05,1380.14 1431.27,1380.1 1439.49,1380.07 1447.71,1380.05 1455.92,1380.02 1464.14,1380 1472.36,1379.98 1480.58,1379.96 1488.79,1379.94 1497.01,1379.92 1505.23,1379.91 1513.44,1379.89 1521.66,1379.88 1529.88,1379.87 1538.1,1379.86 1546.31,1379.85 1554.53,1379.85 1562.75,1379.84 1570.97,1379.83 1579.18,1379.83 1587.4,1379.82 1595.62,1379.82 1603.83,1379.81 1612.05,1379.81 1620.27,1379.81 1628.49,1379.81 1636.7,1379.8 1644.92,1379.8 1653.14,1379.8 1661.36,1379.8 1669.57,1379.8 1677.79,1379.8 1686.01,1379.8 1694.22,1379.8 1702.44,1379.8 1710.66,1379.8 1718.88,1379.8 1727.09,1379.8 1735.31,1379.8 1743.53,1379.8 1751.75,1379.8 1759.96,1379.8 1768.18,1379.8 1776.4,1379.8 1784.61,1379.8 1792.83,1379.8 1801.05,1379.8 1809.27,1379.8 1817.48,1379.8 1825.7,1379.8 1833.92,1379.8 1842.13,1379.8 1850.35,1379.8 1858.57,1379.8 1866.79,1379.81 1875,1379.81 1883.22,1379.81 1891.44,1379.81 1899.66,1379.81 1907.87,1379.81 1916.09,1379.81 1924.31,1379.81 1932.52,1379.81 1940.74,1379.81 1948.96,1379.81 1957.18,1379.81 1965.39,1379.81 1973.61,1379.81 1981.83,1379.81 1990.05,1379.81 1998.26,1379.81 2006.48,1379.81 2014.7,1379.81 2022.91,1379.81 2031.13,1379.81 2039.35,1379.81 2047.57,1379.81 2055.78,1379.81 2064,1379.81 2072.22,1379.81 2080.44,1379.81 2088.65,1379.81 2096.87,1379.81 2105.09,1379.81 2113.3,1379.81 2121.52,1379.81 2129.74,1379.81 2137.96,1379.81 2146.17,1379.81 2154.39,1379.81 2162.61,1379.81 2170.83,1379.81 2179.04,1379.81 2187.26,1379.81 2195.48,1379.81 2203.69,1379.81 2211.91,1379.81 2220.13,1379.81 2228.35,1379.81 2236.56,1379.81 2244.78,1379.81 2253,1379.81 2261.22,1379.81 2269.43,1379.81 2277.65,1379.81 2285.87,1379.81 2294.08,1379.81 "/>
</svg>
